<?xml version="1.0" encoding="utf-8" standalone="no"?>
<!DOCTYPE svg PUBLIC "-//W3C//DTD SVG 1.1//EN"
  "http://www.w3.org/Graphics/SVG/1.1/DTD/svg11.dtd">
<svg xmlns:xlink="http://www.w3.org/1999/xlink" width="720.58125pt" height="337.074375pt" viewBox="0 0 720.58125 337.074375" xmlns="http://www.w3.org/2000/svg" version="1.1">
 <metadata>
  <rdf:RDF xmlns:dc="http://purl.org/dc/elements/1.1/" xmlns:cc="http://creativecommons.org/ns#" xmlns:rdf="http://www.w3.org/1999/02/22-rdf-syntax-ns#">
   <cc:Work>
    <dc:type rdf:resource="http://purl.org/dc/dcmitype/StillImage"/>
    <dc:date>2024-05-10T17:22:09.445883</dc:date>
    <dc:format>image/svg+xml</dc:format>
    <dc:creator>
     <cc:Agent>
      <dc:title>Matplotlib v3.7.2, https://matplotlib.org/</dc:title>
     </cc:Agent>
    </dc:creator>
   </cc:Work>
  </rdf:RDF>
 </metadata>
 <defs>
  <style type="text/css">*{stroke-linejoin: round; stroke-linecap: butt}</style>
 </defs>
 <g id="figure_1">
  <g id="patch_1">
   <path d="M 0 337.074375 
L 720.58125 337.074375 
L 720.58125 0 
L 0 0 
z
" style="fill: #ffffff"/>
  </g>
  <g id="axes_1">
   <g id="patch_2">
    <path d="M 43.78125 299.518125 
L 348.144886 299.518125 
L 348.144886 22.318125 
L 43.78125 22.318125 
z
" style="fill: #ffffff"/>
   </g>
   <g id="matplotlib.axis_1">
    <g id="xtick_1">
     <g id="line2d_1">
      <defs>
       <path id="medaf0ab61f" d="M 0 0 
L 0 3.5 
" style="stroke: #000000; stroke-width: 0.8"/>
      </defs>
      <g>
       <use xlink:href="#medaf0ab61f" x="57.431375" y="299.518125" style="stroke: #000000; stroke-width: 0.8"/>
      </g>
     </g>
     <g id="text_1">
      <!-- 0 -->
      <g transform="translate(54.250125 314.116563) scale(0.1 -0.1)">
       <defs>
        <path id="DejaVuSans-30" d="M 2034 4250 
Q 1547 4250 1301 3770 
Q 1056 3291 1056 2328 
Q 1056 1369 1301 889 
Q 1547 409 2034 409 
Q 2525 409 2770 889 
Q 3016 1369 3016 2328 
Q 3016 3291 2770 3770 
Q 2525 4250 2034 4250 
z
M 2034 4750 
Q 2819 4750 3233 4129 
Q 3647 3509 3647 2328 
Q 3647 1150 3233 529 
Q 2819 -91 2034 -91 
Q 1250 -91 836 529 
Q 422 1150 422 2328 
Q 422 3509 836 4129 
Q 1250 4750 2034 4750 
z
" transform="scale(0.015625)"/>
       </defs>
       <use xlink:href="#DejaVuSans-30"/>
      </g>
     </g>
    </g>
    <g id="xtick_2">
     <g id="line2d_2">
      <g>
       <use xlink:href="#medaf0ab61f" x="94.348548" y="299.518125" style="stroke: #000000; stroke-width: 0.8"/>
      </g>
     </g>
     <g id="text_2">
      <!-- 200 -->
      <g transform="translate(84.804798 314.116563) scale(0.1 -0.1)">
       <defs>
        <path id="DejaVuSans-32" d="M 1228 531 
L 3431 531 
L 3431 0 
L 469 0 
L 469 531 
Q 828 903 1448 1529 
Q 2069 2156 2228 2338 
Q 2531 2678 2651 2914 
Q 2772 3150 2772 3378 
Q 2772 3750 2511 3984 
Q 2250 4219 1831 4219 
Q 1534 4219 1204 4116 
Q 875 4013 500 3803 
L 500 4441 
Q 881 4594 1212 4672 
Q 1544 4750 1819 4750 
Q 2544 4750 2975 4387 
Q 3406 4025 3406 3419 
Q 3406 3131 3298 2873 
Q 3191 2616 2906 2266 
Q 2828 2175 2409 1742 
Q 1991 1309 1228 531 
z
" transform="scale(0.015625)"/>
       </defs>
       <use xlink:href="#DejaVuSans-32"/>
       <use xlink:href="#DejaVuSans-30" x="63.623047"/>
       <use xlink:href="#DejaVuSans-30" x="127.246094"/>
      </g>
     </g>
    </g>
    <g id="xtick_3">
     <g id="line2d_3">
      <g>
       <use xlink:href="#medaf0ab61f" x="131.265722" y="299.518125" style="stroke: #000000; stroke-width: 0.8"/>
      </g>
     </g>
     <g id="text_3">
      <!-- 400 -->
      <g transform="translate(121.721972 314.116563) scale(0.1 -0.1)">
       <defs>
        <path id="DejaVuSans-34" d="M 2419 4116 
L 825 1625 
L 2419 1625 
L 2419 4116 
z
M 2253 4666 
L 3047 4666 
L 3047 1625 
L 3713 1625 
L 3713 1100 
L 3047 1100 
L 3047 0 
L 2419 0 
L 2419 1100 
L 313 1100 
L 313 1709 
L 2253 4666 
z
" transform="scale(0.015625)"/>
       </defs>
       <use xlink:href="#DejaVuSans-34"/>
       <use xlink:href="#DejaVuSans-30" x="63.623047"/>
       <use xlink:href="#DejaVuSans-30" x="127.246094"/>
      </g>
     </g>
    </g>
    <g id="xtick_4">
     <g id="line2d_4">
      <g>
       <use xlink:href="#medaf0ab61f" x="168.182895" y="299.518125" style="stroke: #000000; stroke-width: 0.8"/>
      </g>
     </g>
     <g id="text_4">
      <!-- 600 -->
      <g transform="translate(158.639145 314.116563) scale(0.1 -0.1)">
       <defs>
        <path id="DejaVuSans-36" d="M 2113 2584 
Q 1688 2584 1439 2293 
Q 1191 2003 1191 1497 
Q 1191 994 1439 701 
Q 1688 409 2113 409 
Q 2538 409 2786 701 
Q 3034 994 3034 1497 
Q 3034 2003 2786 2293 
Q 2538 2584 2113 2584 
z
M 3366 4563 
L 3366 3988 
Q 3128 4100 2886 4159 
Q 2644 4219 2406 4219 
Q 1781 4219 1451 3797 
Q 1122 3375 1075 2522 
Q 1259 2794 1537 2939 
Q 1816 3084 2150 3084 
Q 2853 3084 3261 2657 
Q 3669 2231 3669 1497 
Q 3669 778 3244 343 
Q 2819 -91 2113 -91 
Q 1303 -91 875 529 
Q 447 1150 447 2328 
Q 447 3434 972 4092 
Q 1497 4750 2381 4750 
Q 2619 4750 2861 4703 
Q 3103 4656 3366 4563 
z
" transform="scale(0.015625)"/>
       </defs>
       <use xlink:href="#DejaVuSans-36"/>
       <use xlink:href="#DejaVuSans-30" x="63.623047"/>
       <use xlink:href="#DejaVuSans-30" x="127.246094"/>
      </g>
     </g>
    </g>
    <g id="xtick_5">
     <g id="line2d_5">
      <g>
       <use xlink:href="#medaf0ab61f" x="205.100069" y="299.518125" style="stroke: #000000; stroke-width: 0.8"/>
      </g>
     </g>
     <g id="text_5">
      <!-- 800 -->
      <g transform="translate(195.556319 314.116563) scale(0.1 -0.1)">
       <defs>
        <path id="DejaVuSans-38" d="M 2034 2216 
Q 1584 2216 1326 1975 
Q 1069 1734 1069 1313 
Q 1069 891 1326 650 
Q 1584 409 2034 409 
Q 2484 409 2743 651 
Q 3003 894 3003 1313 
Q 3003 1734 2745 1975 
Q 2488 2216 2034 2216 
z
M 1403 2484 
Q 997 2584 770 2862 
Q 544 3141 544 3541 
Q 544 4100 942 4425 
Q 1341 4750 2034 4750 
Q 2731 4750 3128 4425 
Q 3525 4100 3525 3541 
Q 3525 3141 3298 2862 
Q 3072 2584 2669 2484 
Q 3125 2378 3379 2068 
Q 3634 1759 3634 1313 
Q 3634 634 3220 271 
Q 2806 -91 2034 -91 
Q 1263 -91 848 271 
Q 434 634 434 1313 
Q 434 1759 690 2068 
Q 947 2378 1403 2484 
z
M 1172 3481 
Q 1172 3119 1398 2916 
Q 1625 2713 2034 2713 
Q 2441 2713 2670 2916 
Q 2900 3119 2900 3481 
Q 2900 3844 2670 4047 
Q 2441 4250 2034 4250 
Q 1625 4250 1398 4047 
Q 1172 3844 1172 3481 
z
" transform="scale(0.015625)"/>
       </defs>
       <use xlink:href="#DejaVuSans-38"/>
       <use xlink:href="#DejaVuSans-30" x="63.623047"/>
       <use xlink:href="#DejaVuSans-30" x="127.246094"/>
      </g>
     </g>
    </g>
    <g id="xtick_6">
     <g id="line2d_6">
      <g>
       <use xlink:href="#medaf0ab61f" x="242.017242" y="299.518125" style="stroke: #000000; stroke-width: 0.8"/>
      </g>
     </g>
     <g id="text_6">
      <!-- 1000 -->
      <g transform="translate(229.292242 314.116563) scale(0.1 -0.1)">
       <defs>
        <path id="DejaVuSans-31" d="M 794 531 
L 1825 531 
L 1825 4091 
L 703 3866 
L 703 4441 
L 1819 4666 
L 2450 4666 
L 2450 531 
L 3481 531 
L 3481 0 
L 794 0 
L 794 531 
z
" transform="scale(0.015625)"/>
       </defs>
       <use xlink:href="#DejaVuSans-31"/>
       <use xlink:href="#DejaVuSans-30" x="63.623047"/>
       <use xlink:href="#DejaVuSans-30" x="127.246094"/>
       <use xlink:href="#DejaVuSans-30" x="190.869141"/>
      </g>
     </g>
    </g>
    <g id="xtick_7">
     <g id="line2d_7">
      <g>
       <use xlink:href="#medaf0ab61f" x="278.934415" y="299.518125" style="stroke: #000000; stroke-width: 0.8"/>
      </g>
     </g>
     <g id="text_7">
      <!-- 1200 -->
      <g transform="translate(266.209415 314.116563) scale(0.1 -0.1)">
       <use xlink:href="#DejaVuSans-31"/>
       <use xlink:href="#DejaVuSans-32" x="63.623047"/>
       <use xlink:href="#DejaVuSans-30" x="127.246094"/>
       <use xlink:href="#DejaVuSans-30" x="190.869141"/>
      </g>
     </g>
    </g>
    <g id="xtick_8">
     <g id="line2d_8">
      <g>
       <use xlink:href="#medaf0ab61f" x="315.851589" y="299.518125" style="stroke: #000000; stroke-width: 0.8"/>
      </g>
     </g>
     <g id="text_8">
      <!-- 1400 -->
      <g transform="translate(303.126589 314.116563) scale(0.1 -0.1)">
       <use xlink:href="#DejaVuSans-31"/>
       <use xlink:href="#DejaVuSans-34" x="63.623047"/>
       <use xlink:href="#DejaVuSans-30" x="127.246094"/>
       <use xlink:href="#DejaVuSans-30" x="190.869141"/>
      </g>
     </g>
    </g>
    <g id="text_9">
     <!-- Epoch -->
     <g transform="translate(180.652131 327.794688) scale(0.1 -0.1)">
      <defs>
       <path id="DejaVuSans-45" d="M 628 4666 
L 3578 4666 
L 3578 4134 
L 1259 4134 
L 1259 2753 
L 3481 2753 
L 3481 2222 
L 1259 2222 
L 1259 531 
L 3634 531 
L 3634 0 
L 628 0 
L 628 4666 
z
" transform="scale(0.015625)"/>
       <path id="DejaVuSans-70" d="M 1159 525 
L 1159 -1331 
L 581 -1331 
L 581 3500 
L 1159 3500 
L 1159 2969 
Q 1341 3281 1617 3432 
Q 1894 3584 2278 3584 
Q 2916 3584 3314 3078 
Q 3713 2572 3713 1747 
Q 3713 922 3314 415 
Q 2916 -91 2278 -91 
Q 1894 -91 1617 61 
Q 1341 213 1159 525 
z
M 3116 1747 
Q 3116 2381 2855 2742 
Q 2594 3103 2138 3103 
Q 1681 3103 1420 2742 
Q 1159 2381 1159 1747 
Q 1159 1113 1420 752 
Q 1681 391 2138 391 
Q 2594 391 2855 752 
Q 3116 1113 3116 1747 
z
" transform="scale(0.015625)"/>
       <path id="DejaVuSans-6f" d="M 1959 3097 
Q 1497 3097 1228 2736 
Q 959 2375 959 1747 
Q 959 1119 1226 758 
Q 1494 397 1959 397 
Q 2419 397 2687 759 
Q 2956 1122 2956 1747 
Q 2956 2369 2687 2733 
Q 2419 3097 1959 3097 
z
M 1959 3584 
Q 2709 3584 3137 3096 
Q 3566 2609 3566 1747 
Q 3566 888 3137 398 
Q 2709 -91 1959 -91 
Q 1206 -91 779 398 
Q 353 888 353 1747 
Q 353 2609 779 3096 
Q 1206 3584 1959 3584 
z
" transform="scale(0.015625)"/>
       <path id="DejaVuSans-63" d="M 3122 3366 
L 3122 2828 
Q 2878 2963 2633 3030 
Q 2388 3097 2138 3097 
Q 1578 3097 1268 2742 
Q 959 2388 959 1747 
Q 959 1106 1268 751 
Q 1578 397 2138 397 
Q 2388 397 2633 464 
Q 2878 531 3122 666 
L 3122 134 
Q 2881 22 2623 -34 
Q 2366 -91 2075 -91 
Q 1284 -91 818 406 
Q 353 903 353 1747 
Q 353 2603 823 3093 
Q 1294 3584 2113 3584 
Q 2378 3584 2631 3529 
Q 2884 3475 3122 3366 
z
" transform="scale(0.015625)"/>
       <path id="DejaVuSans-68" d="M 3513 2113 
L 3513 0 
L 2938 0 
L 2938 2094 
Q 2938 2591 2744 2837 
Q 2550 3084 2163 3084 
Q 1697 3084 1428 2787 
Q 1159 2491 1159 1978 
L 1159 0 
L 581 0 
L 581 4863 
L 1159 4863 
L 1159 2956 
Q 1366 3272 1645 3428 
Q 1925 3584 2291 3584 
Q 2894 3584 3203 3211 
Q 3513 2838 3513 2113 
z
" transform="scale(0.015625)"/>
      </defs>
      <use xlink:href="#DejaVuSans-45"/>
      <use xlink:href="#DejaVuSans-70" x="63.183594"/>
      <use xlink:href="#DejaVuSans-6f" x="126.660156"/>
      <use xlink:href="#DejaVuSans-63" x="187.841797"/>
      <use xlink:href="#DejaVuSans-68" x="242.822266"/>
     </g>
    </g>
   </g>
   <g id="matplotlib.axis_2">
    <g id="ytick_1">
     <g id="line2d_9">
      <defs>
       <path id="m4b9bcab80e" d="M 0 0 
L -3.5 0 
" style="stroke: #000000; stroke-width: 0.8"/>
      </defs>
      <g>
       <use xlink:href="#m4b9bcab80e" x="43.78125" y="299.518125" style="stroke: #000000; stroke-width: 0.8"/>
      </g>
     </g>
     <g id="text_10">
      <!-- 0.2 -->
      <g transform="translate(20.878125 303.317344) scale(0.1 -0.1)">
       <defs>
        <path id="DejaVuSans-2e" d="M 684 794 
L 1344 794 
L 1344 0 
L 684 0 
L 684 794 
z
" transform="scale(0.015625)"/>
       </defs>
       <use xlink:href="#DejaVuSans-30"/>
       <use xlink:href="#DejaVuSans-2e" x="63.623047"/>
       <use xlink:href="#DejaVuSans-32" x="95.410156"/>
      </g>
     </g>
    </g>
    <g id="ytick_2">
     <g id="line2d_10">
      <g>
       <use xlink:href="#m4b9bcab80e" x="43.78125" y="253.318125" style="stroke: #000000; stroke-width: 0.8"/>
      </g>
     </g>
     <g id="text_11">
      <!-- 0.3 -->
      <g transform="translate(20.878125 257.117344) scale(0.1 -0.1)">
       <defs>
        <path id="DejaVuSans-33" d="M 2597 2516 
Q 3050 2419 3304 2112 
Q 3559 1806 3559 1356 
Q 3559 666 3084 287 
Q 2609 -91 1734 -91 
Q 1441 -91 1130 -33 
Q 819 25 488 141 
L 488 750 
Q 750 597 1062 519 
Q 1375 441 1716 441 
Q 2309 441 2620 675 
Q 2931 909 2931 1356 
Q 2931 1769 2642 2001 
Q 2353 2234 1838 2234 
L 1294 2234 
L 1294 2753 
L 1863 2753 
Q 2328 2753 2575 2939 
Q 2822 3125 2822 3475 
Q 2822 3834 2567 4026 
Q 2313 4219 1838 4219 
Q 1578 4219 1281 4162 
Q 984 4106 628 3988 
L 628 4550 
Q 988 4650 1302 4700 
Q 1616 4750 1894 4750 
Q 2613 4750 3031 4423 
Q 3450 4097 3450 3541 
Q 3450 3153 3228 2886 
Q 3006 2619 2597 2516 
z
" transform="scale(0.015625)"/>
       </defs>
       <use xlink:href="#DejaVuSans-30"/>
       <use xlink:href="#DejaVuSans-2e" x="63.623047"/>
       <use xlink:href="#DejaVuSans-33" x="95.410156"/>
      </g>
     </g>
    </g>
    <g id="ytick_3">
     <g id="line2d_11">
      <g>
       <use xlink:href="#m4b9bcab80e" x="43.78125" y="207.118125" style="stroke: #000000; stroke-width: 0.8"/>
      </g>
     </g>
     <g id="text_12">
      <!-- 0.4 -->
      <g transform="translate(20.878125 210.917344) scale(0.1 -0.1)">
       <use xlink:href="#DejaVuSans-30"/>
       <use xlink:href="#DejaVuSans-2e" x="63.623047"/>
       <use xlink:href="#DejaVuSans-34" x="95.410156"/>
      </g>
     </g>
    </g>
    <g id="ytick_4">
     <g id="line2d_12">
      <g>
       <use xlink:href="#m4b9bcab80e" x="43.78125" y="160.918125" style="stroke: #000000; stroke-width: 0.8"/>
      </g>
     </g>
     <g id="text_13">
      <!-- 0.5 -->
      <g transform="translate(20.878125 164.717344) scale(0.1 -0.1)">
       <defs>
        <path id="DejaVuSans-35" d="M 691 4666 
L 3169 4666 
L 3169 4134 
L 1269 4134 
L 1269 2991 
Q 1406 3038 1543 3061 
Q 1681 3084 1819 3084 
Q 2600 3084 3056 2656 
Q 3513 2228 3513 1497 
Q 3513 744 3044 326 
Q 2575 -91 1722 -91 
Q 1428 -91 1123 -41 
Q 819 9 494 109 
L 494 744 
Q 775 591 1075 516 
Q 1375 441 1709 441 
Q 2250 441 2565 725 
Q 2881 1009 2881 1497 
Q 2881 1984 2565 2268 
Q 2250 2553 1709 2553 
Q 1456 2553 1204 2497 
Q 953 2441 691 2322 
L 691 4666 
z
" transform="scale(0.015625)"/>
       </defs>
       <use xlink:href="#DejaVuSans-30"/>
       <use xlink:href="#DejaVuSans-2e" x="63.623047"/>
       <use xlink:href="#DejaVuSans-35" x="95.410156"/>
      </g>
     </g>
    </g>
    <g id="ytick_5">
     <g id="line2d_13">
      <g>
       <use xlink:href="#m4b9bcab80e" x="43.78125" y="114.718125" style="stroke: #000000; stroke-width: 0.8"/>
      </g>
     </g>
     <g id="text_14">
      <!-- 0.6 -->
      <g transform="translate(20.878125 118.517344) scale(0.1 -0.1)">
       <use xlink:href="#DejaVuSans-30"/>
       <use xlink:href="#DejaVuSans-2e" x="63.623047"/>
       <use xlink:href="#DejaVuSans-36" x="95.410156"/>
      </g>
     </g>
    </g>
    <g id="ytick_6">
     <g id="line2d_14">
      <g>
       <use xlink:href="#m4b9bcab80e" x="43.78125" y="68.518125" style="stroke: #000000; stroke-width: 0.8"/>
      </g>
     </g>
     <g id="text_15">
      <!-- 0.7 -->
      <g transform="translate(20.878125 72.317344) scale(0.1 -0.1)">
       <defs>
        <path id="DejaVuSans-37" d="M 525 4666 
L 3525 4666 
L 3525 4397 
L 1831 0 
L 1172 0 
L 2766 4134 
L 525 4134 
L 525 4666 
z
" transform="scale(0.015625)"/>
       </defs>
       <use xlink:href="#DejaVuSans-30"/>
       <use xlink:href="#DejaVuSans-2e" x="63.623047"/>
       <use xlink:href="#DejaVuSans-37" x="95.410156"/>
      </g>
     </g>
    </g>
    <g id="ytick_7">
     <g id="line2d_15">
      <g>
       <use xlink:href="#m4b9bcab80e" x="43.78125" y="22.318125" style="stroke: #000000; stroke-width: 0.8"/>
      </g>
     </g>
     <g id="text_16">
      <!-- 0.8 -->
      <g transform="translate(20.878125 26.117344) scale(0.1 -0.1)">
       <use xlink:href="#DejaVuSans-30"/>
       <use xlink:href="#DejaVuSans-2e" x="63.623047"/>
       <use xlink:href="#DejaVuSans-38" x="95.410156"/>
      </g>
     </g>
    </g>
    <g id="text_17">
     <!-- Loss -->
     <g transform="translate(14.798438 171.885313) rotate(-90) scale(0.1 -0.1)">
      <defs>
       <path id="DejaVuSans-4c" d="M 628 4666 
L 1259 4666 
L 1259 531 
L 3531 531 
L 3531 0 
L 628 0 
L 628 4666 
z
" transform="scale(0.015625)"/>
       <path id="DejaVuSans-73" d="M 2834 3397 
L 2834 2853 
Q 2591 2978 2328 3040 
Q 2066 3103 1784 3103 
Q 1356 3103 1142 2972 
Q 928 2841 928 2578 
Q 928 2378 1081 2264 
Q 1234 2150 1697 2047 
L 1894 2003 
Q 2506 1872 2764 1633 
Q 3022 1394 3022 966 
Q 3022 478 2636 193 
Q 2250 -91 1575 -91 
Q 1294 -91 989 -36 
Q 684 19 347 128 
L 347 722 
Q 666 556 975 473 
Q 1284 391 1588 391 
Q 1994 391 2212 530 
Q 2431 669 2431 922 
Q 2431 1156 2273 1281 
Q 2116 1406 1581 1522 
L 1381 1569 
Q 847 1681 609 1914 
Q 372 2147 372 2553 
Q 372 3047 722 3315 
Q 1072 3584 1716 3584 
Q 2034 3584 2315 3537 
Q 2597 3491 2834 3397 
z
" transform="scale(0.015625)"/>
      </defs>
      <use xlink:href="#DejaVuSans-4c"/>
      <use xlink:href="#DejaVuSans-6f" x="53.962891"/>
      <use xlink:href="#DejaVuSans-73" x="115.144531"/>
      <use xlink:href="#DejaVuSans-73" x="167.244141"/>
     </g>
    </g>
   </g>
   <g id="line2d_16">
    <path d="M 60.337749 -1 
L 60.75392 12.072442 
L 61.67685 34.159679 
L 62.784365 52.291015 
L 63.89188 66.056701 
L 65.737739 82.74991 
L 66.291497 87.00544 
L 68.506527 99.947146 
L 68.875699 101.328579 
L 69.24487 103.797632 
L 69.983214 106.526914 
L 70.721557 109.817707 
L 72.38283 115.805918 
L 72.752002 116.878775 
L 72.936588 117.844908 
L 73.305759 118.614779 
L 74.228689 121.569007 
L 76.812891 128.343202 
L 76.997477 128.539558 
L 77.182063 129.374024 
L 77.366649 129.314954 
L 77.920406 130.708438 
L 78.104992 130.929271 
L 78.289578 131.516618 
L 78.474164 131.613467 
L 78.843335 132.670736 
L 79.027921 132.89267 
L 79.581679 134.368832 
L 79.766265 134.389274 
L 79.950851 134.827231 
L 80.135437 134.725316 
L 80.320022 135.741794 
L 81.058366 136.755883 
L 82.165881 138.599106 
L 82.350467 138.680468 
L 82.904225 139.911749 
L 83.08881 139.932637 
L 83.642568 140.937844 
L 83.827154 140.940181 
L 84.196326 142.194911 
L 84.380911 142.18154 
L 84.565497 141.978326 
L 85.119255 143.143425 
L 85.303841 143.124226 
L 85.673013 144.242376 
L 85.857598 143.794928 
L 86.411356 144.865659 
L 86.780528 145.338772 
L 87.149699 145.535011 
L 87.518871 146.340844 
L 88.072629 147.081883 
L 88.257215 147.022483 
L 88.441801 147.214264 
L 88.626386 147.835064 
L 88.810972 147.860611 
L 88.995558 148.119791 
L 89.180144 148.148085 
L 89.549316 148.711466 
L 90.103073 149.439135 
L 90.287659 149.363016 
L 90.472245 149.764622 
L 90.656831 149.817525 
L 90.841417 150.166439 
L 91.026003 150.253038 
L 91.210589 150.548658 
L 91.395174 150.326338 
L 91.764346 150.949599 
L 91.948932 151.280475 
L 92.318104 151.410416 
L 92.50269 152.037472 
L 92.687276 151.816313 
L 92.871861 152.049481 
L 93.056447 152.517211 
L 93.794791 152.794747 
L 93.979377 153.164012 
L 94.163962 153.104064 
L 94.71772 153.993267 
L 94.902306 154.072486 
L 95.086892 154.307972 
L 95.456064 154.448439 
L 95.825235 154.678861 
L 96.009821 154.856855 
L 96.194407 155.236262 
L 96.378993 155.269146 
L 96.563579 155.616251 
L 96.748165 155.640433 
L 96.93275 156.138998 
L 97.117336 156.088498 
L 97.486508 156.200733 
L 97.671094 156.711653 
L 97.85568 156.538939 
L 98.040266 156.54384 
L 98.224852 157.265572 
L 98.409437 156.81386 
L 98.594023 157.414609 
L 98.778609 157.225762 
L 98.963195 157.295245 
L 99.147781 157.703461 
L 99.332367 157.723696 
L 99.516953 158.097984 
L 99.701538 158.002214 
L 99.886124 158.065132 
L 100.07071 158.3553 
L 100.624468 158.409894 
L 100.809054 159.103957 
L 100.99364 158.94658 
L 101.178225 159.247339 
L 101.362811 159.235764 
L 101.547397 159.694124 
L 101.731983 159.710416 
L 101.916569 159.594682 
L 102.101155 159.811315 
L 102.285741 159.779819 
L 102.470326 160.045097 
L 102.654912 160.003646 
L 102.839498 160.510121 
L 103.024084 160.243178 
L 103.393256 160.922604 
L 103.577842 160.767863 
L 103.762428 161.071465 
L 104.500771 161.490032 
L 104.685357 161.376773 
L 105.054529 161.831011 
L 105.239114 161.822117 
L 105.4237 162.15667 
L 105.608286 162.116941 
L 106.531216 162.675154 
L 106.715801 163.076655 
L 107.084973 162.981114 
L 107.638731 163.384382 
L 108.007902 163.469238 
L 108.192488 163.897874 
L 108.56166 163.97905 
L 108.746246 163.911868 
L 109.115418 164.449237 
L 109.300004 164.293751 
L 109.484589 164.533013 
L 109.669175 164.501845 
L 109.853761 164.611546 
L 110.407519 165.362831 
L 110.592105 164.850352 
L 110.77669 165.150308 
L 110.961276 165.206021 
L 111.330448 165.621432 
L 111.515034 165.456157 
L 111.69962 165.629558 
L 111.884206 165.605372 
L 112.253377 165.953534 
L 112.437963 166.38235 
L 112.622549 166.358007 
L 112.991721 166.666054 
L 113.176307 166.386112 
L 113.360893 166.566157 
L 113.545478 166.521031 
L 113.91465 166.784197 
L 114.099236 166.830312 
L 114.283822 167.224007 
L 114.468408 167.125781 
L 114.652994 167.337623 
L 114.83758 167.25402 
L 115.206751 167.386928 
L 115.391337 167.762885 
L 115.575923 167.842155 
L 115.760509 167.432774 
L 115.945095 167.844448 
L 116.129681 167.799424 
L 116.314267 168.162059 
L 116.498852 168.076131 
L 117.05261 168.323899 
L 117.421782 168.505129 
L 117.606368 168.788711 
L 117.790953 168.507565 
L 117.975539 169.102965 
L 118.160125 168.63986 
L 118.713883 169.254879 
L 118.898469 169.077032 
L 119.26764 169.355442 
L 119.452226 169.815888 
L 119.636812 169.469713 
L 119.821398 169.782595 
L 120.19057 169.827397 
L 120.375156 169.666951 
L 120.559741 170.184195 
L 120.744327 170.032025 
L 120.928913 170.375064 
L 121.113499 170.119427 
L 121.298085 170.260024 
L 121.482671 170.044994 
L 121.667257 170.902535 
L 121.851843 170.614897 
L 122.221014 170.619701 
L 122.4056 170.786867 
L 122.590186 170.718661 
L 122.959358 171.057952 
L 123.143944 170.910096 
L 123.328529 170.989311 
L 123.513115 171.22903 
L 123.697701 171.285835 
L 123.882287 171.480317 
L 124.066873 171.423869 
L 124.251459 171.529316 
L 124.436045 171.770398 
L 124.620631 171.746818 
L 124.805216 171.527708 
L 124.989802 171.8529 
L 125.358974 171.951246 
L 125.728146 172.005004 
L 125.912732 172.144945 
L 126.097317 172.521388 
L 126.281903 172.10358 
L 126.466489 172.384243 
L 126.651075 172.432792 
L 126.835661 172.667568 
L 127.020247 172.614609 
L 127.389419 173.014657 
L 127.574004 172.977987 
L 127.75859 172.546948 
L 128.127762 173.140184 
L 128.496934 172.999103 
L 128.866105 173.323628 
L 129.050691 173.176724 
L 129.419863 173.429806 
L 129.604449 173.311658 
L 129.973621 173.727703 
L 130.158207 173.66064 
L 130.527378 173.868319 
L 130.711964 173.902307 
L 130.89655 173.60675 
L 131.081136 174.09531 
L 131.265722 174.195125 
L 131.634893 174.049107 
L 131.819479 174.488578 
L 132.188651 174.293172 
L 132.373237 174.632089 
L 133.296166 174.644494 
L 133.480752 174.887891 
L 133.665338 174.855258 
L 133.849924 175.029118 
L 134.03451 174.811139 
L 134.219096 175.258135 
L 134.403681 175.05403 
L 134.772853 175.354779 
L 134.957439 175.419419 
L 135.142025 175.351792 
L 135.326611 175.455458 
L 135.511197 175.335606 
L 135.880368 175.594179 
L 136.24954 175.932325 
L 136.803298 175.900152 
L 136.987884 176.287011 
L 137.172469 176.304675 
L 137.541641 176.135036 
L 138.095399 176.41405 
L 138.279985 176.647768 
L 138.649156 176.43261 
L 138.833742 176.641479 
L 139.202914 176.448374 
L 139.3875 176.724247 
L 140.310429 176.983447 
L 140.495015 177.506956 
L 140.864187 176.893017 
L 141.233359 177.417929 
L 141.417944 177.333824 
L 141.787116 177.520609 
L 141.971702 177.448343 
L 142.156288 177.62276 
L 142.340874 177.487201 
L 142.710046 177.879393 
L 142.894631 177.912714 
L 143.079217 177.812139 
L 143.632975 178.26281 
L 143.817561 177.93007 
L 144.002147 178.242348 
L 144.186732 177.983035 
L 144.555904 178.368592 
L 144.925076 178.120625 
L 145.109662 178.246118 
L 145.294248 178.521792 
L 145.478834 178.459134 
L 145.663419 178.172477 
L 145.848005 178.310807 
L 146.032591 178.728561 
L 146.401763 178.600637 
L 146.586349 178.477516 
L 146.770935 178.838385 
L 146.95552 178.640766 
L 147.140106 178.744898 
L 147.324692 179.101737 
L 147.509278 178.852085 
L 147.693864 179.188097 
L 147.87845 178.978246 
L 148.247622 179.18486 
L 148.616793 179.13563 
L 148.801379 179.573911 
L 148.985965 179.261686 
L 149.170551 179.510675 
L 149.355137 179.441622 
L 149.539723 179.549446 
L 149.724308 179.433497 
L 150.09348 179.793441 
L 150.278066 179.400543 
L 150.462652 179.860527 
L 150.647238 179.883026 
L 150.831824 179.791507 
L 151.01641 180.069238 
L 151.200995 180.062602 
L 151.385581 179.910847 
L 151.570167 180.206949 
L 151.754753 179.871793 
L 151.939339 180.20161 
L 152.123925 180.15584 
L 152.308511 180.382834 
L 152.493096 180.057037 
L 152.677682 180.039533 
L 152.862268 180.337013 
L 153.600612 180.416333 
L 153.785198 180.250441 
L 153.969783 180.651091 
L 154.154369 180.61649 
L 154.523541 180.968613 
L 154.708127 180.762361 
L 154.892713 181.061409 
L 155.077299 181.111818 
L 155.261884 181.009538 
L 156.000228 181.098396 
L 156.184814 181.014906 
L 156.3694 181.194207 
L 156.553986 181.203082 
L 156.738571 180.958227 
L 156.923157 181.195975 
L 157.107743 180.999082 
L 157.476915 181.353959 
L 157.661501 181.79528 
L 158.215258 181.347667 
L 158.769016 181.761342 
L 159.138188 181.676496 
L 159.322774 182.089453 
L 159.876531 181.789069 
L 160.245703 182.140842 
L 160.430289 181.738578 
L 160.614875 182.103269 
L 160.984046 181.959509 
L 161.353218 182.513555 
L 161.537804 182.222668 
L 162.091562 182.920159 
L 162.276147 182.451141 
L 162.460733 182.485282 
L 162.645319 182.723621 
L 162.829905 182.629688 
L 163.199077 182.775448 
L 163.383663 182.575734 
L 163.752834 182.758248 
L 163.93742 182.745603 
L 164.491178 183.010315 
L 164.675764 183.072915 
L 164.86035 183.392504 
L 165.044935 183.001413 
L 165.229521 183.101004 
L 165.414107 183.346231 
L 165.598693 183.04749 
L 165.967865 183.19777 
L 166.152451 183.10293 
L 166.337037 183.349861 
L 166.706208 183.2113 
L 166.890794 183.454524 
L 167.259966 183.456721 
L 167.813723 183.220035 
L 167.998309 183.503041 
L 168.182895 183.531697 
L 168.367481 183.885806 
L 168.552067 183.467105 
L 168.736653 183.813865 
L 168.921239 183.789994 
L 169.105825 184.067904 
L 169.659582 183.851912 
L 170.21334 184.128879 
L 170.397926 184.413286 
L 170.582511 184.147859 
L 171.136269 184.293408 
L 171.320855 184.10357 
L 171.505441 184.364625 
L 171.690027 184.820455 
L 172.059198 184.214487 
L 172.243784 184.296324 
L 172.42837 184.546591 
L 172.612956 184.378569 
L 172.797542 184.51093 
L 172.982128 184.841072 
L 173.166714 184.51805 
L 174.274229 184.682959 
L 174.458815 184.550647 
L 174.643401 184.918964 
L 175.012572 184.890045 
L 175.197158 184.959953 
L 175.381744 184.86942 
L 175.750916 185.202824 
L 176.120087 184.895068 
L 176.304673 185.169318 
L 176.489259 184.970185 
L 176.673845 185.351736 
L 176.858431 185.143994 
L 177.227603 185.664381 
L 177.596774 185.327121 
L 177.78136 185.330902 
L 177.965946 185.711029 
L 178.150532 185.483768 
L 178.519704 185.503927 
L 178.888875 185.431736 
L 179.073461 185.867795 
L 179.442633 185.823654 
L 179.996391 185.801589 
L 180.180977 185.72568 
L 180.365562 186.039713 
L 180.734734 185.729961 
L 180.91932 186.120503 
L 181.103906 186.135034 
L 181.288492 185.732461 
L 181.473078 186.341812 
L 181.657663 185.999775 
L 181.842249 186.148209 
L 182.026835 185.975574 
L 182.211421 186.267244 
L 182.396007 186.113847 
L 182.949765 186.445568 
L 183.13435 186.429109 
L 183.318936 186.190923 
L 183.503522 186.579429 
L 183.872694 186.45739 
L 184.05728 186.722065 
L 184.241866 186.517836 
L 184.426451 186.702614 
L 184.611037 186.469559 
L 184.795623 186.714279 
L 185.349381 186.516787 
L 185.903138 186.79792 
L 186.087724 186.641461 
L 186.27231 186.725515 
L 186.456896 186.565473 
L 186.641482 187.401837 
L 186.826068 186.638247 
L 187.010654 186.856097 
L 187.195239 187.305228 
L 187.379825 186.891624 
L 187.564411 187.014417 
L 187.748997 186.775594 
L 187.933583 187.281177 
L 188.118169 187.082857 
L 188.302755 187.526849 
L 188.487341 186.829169 
L 188.671926 186.856301 
L 188.856512 187.288661 
L 189.225684 187.145071 
L 189.594856 187.491032 
L 189.779442 187.180942 
L 190.517785 187.556617 
L 191.071543 187.224025 
L 191.6253 187.785287 
L 191.809886 187.839491 
L 191.994472 187.688872 
L 192.179058 187.750488 
L 192.363644 187.621579 
L 192.54823 187.656233 
L 192.732816 188.006221 
L 192.917401 187.573836 
L 193.101987 187.704399 
L 193.286573 187.998557 
L 193.471159 187.938772 
L 193.655745 188.228108 
L 193.840331 187.904894 
L 194.024917 188.033825 
L 194.394088 187.830081 
L 194.76326 188.246161 
L 195.132432 188.090756 
L 195.686189 188.452771 
L 195.870775 188.17824 
L 196.055361 188.220696 
L 196.239947 188.385869 
L 196.424533 188.235608 
L 196.609119 188.748715 
L 196.793705 188.09048 
L 196.97829 188.244093 
L 197.347462 188.163435 
L 197.532048 188.486868 
L 197.716634 188.456618 
L 197.90122 188.68453 
L 198.270392 188.392459 
L 198.454977 188.593382 
L 198.639563 188.589822 
L 198.824149 188.77624 
L 199.008735 188.301279 
L 199.193321 188.854068 
L 199.377907 188.655241 
L 199.562493 188.906415 
L 199.747078 188.690484 
L 200.11625 188.92647 
L 200.300836 188.66952 
L 200.670008 189.144611 
L 200.854594 188.77697 
L 201.03918 188.69762 
L 201.223765 189.069045 
L 201.408351 188.721071 
L 201.592937 189.11215 
L 201.777523 188.964582 
L 201.962109 189.235919 
L 202.146695 189.027758 
L 202.331281 189.032847 
L 202.700452 189.437251 
L 202.885038 189.061393 
L 203.25421 189.466175 
L 203.438796 189.277218 
L 203.992553 189.479011 
L 204.177139 189.287396 
L 204.546311 189.367854 
L 204.730897 189.497541 
L 205.100069 189.355811 
L 205.284654 189.462536 
L 205.46924 189.268008 
L 205.653826 189.270899 
L 205.838412 189.473461 
L 206.022998 189.487006 
L 206.207584 189.870615 
L 206.39217 189.465438 
L 206.761341 189.806533 
L 207.315099 189.567959 
L 207.684271 190.124973 
L 208.053442 190.017352 
L 208.238028 189.915596 
L 208.422614 190.036367 
L 208.6072 189.84671 
L 208.791786 190.451727 
L 208.976372 190.156103 
L 209.160958 190.238469 
L 209.530129 189.596086 
L 209.714715 190.054443 
L 209.899301 190.11017 
L 210.083887 190.447267 
L 210.268473 190.121304 
L 210.453059 190.287743 
L 210.637645 190.077395 
L 211.191402 190.449248 
L 211.375988 190.012747 
L 211.560574 190.264804 
L 211.929746 190.319978 
L 212.114332 190.537998 
L 212.668089 190.36907 
L 212.852675 190.428752 
L 213.037261 190.082737 
L 213.221847 190.792471 
L 213.775604 190.460639 
L 213.96019 190.646002 
L 214.144776 190.484789 
L 214.329362 190.609391 
L 214.513948 190.493026 
L 214.698534 190.858359 
L 214.88312 190.605021 
L 215.067705 190.945551 
L 215.252291 190.627605 
L 215.436877 191.206298 
L 215.621463 190.547184 
L 215.806049 191.106477 
L 215.990635 190.6753 
L 216.175221 190.794025 
L 216.359807 191.075191 
L 216.544392 190.878182 
L 217.09815 191.110122 
L 217.282736 191.010043 
L 217.467322 191.136571 
L 217.651908 191.109032 
L 217.836493 191.251186 
L 218.021079 191.131262 
L 218.574837 191.16914 
L 218.759423 191.067131 
L 218.944009 191.145382 
L 219.128595 191.060331 
L 219.31318 191.307227 
L 219.682352 190.886203 
L 220.051524 191.543235 
L 220.23611 191.294262 
L 220.420696 191.501552 
L 220.605281 191.064843 
L 220.789867 191.29496 
L 220.974453 191.066363 
L 221.159039 191.668538 
L 221.897383 191.584582 
L 222.635726 191.494321 
L 222.820312 191.370919 
L 223.004898 191.4411 
L 223.189484 191.20342 
L 223.374069 191.627593 
L 223.558655 191.529947 
L 223.743241 191.714547 
L 224.112413 191.534025 
L 224.296999 191.966772 
L 224.481585 191.961159 
L 224.666171 191.805397 
L 224.850756 191.87141 
L 225.035342 191.686251 
L 225.404514 192.436831 
L 225.5891 191.983458 
L 225.958272 191.992961 
L 226.142857 192.243074 
L 226.512029 191.942712 
L 226.696615 191.954555 
L 226.881201 191.749254 
L 227.250373 192.216308 
L 227.434959 191.967784 
L 227.619544 192.031 
L 227.80413 191.907387 
L 227.988716 192.246624 
L 228.173302 192.069159 
L 228.357888 192.675562 
L 228.542474 192.040455 
L 228.911645 192.436831 
L 229.096231 192.169684 
L 229.280817 192.381564 
L 229.649989 192.257908 
L 229.834575 192.480249 
L 230.572918 192.365428 
L 230.757504 192.636515 
L 231.126676 192.478613 
L 231.680433 192.471462 
L 231.865019 192.129774 
L 232.234191 192.738452 
L 232.418777 192.35931 
L 232.972535 192.888703 
L 233.15712 192.619188 
L 233.341706 192.641552 
L 233.526292 192.844413 
L 233.895464 192.83082 
L 234.08005 192.677767 
L 234.264636 193.05511 
L 234.449221 192.786207 
L 234.818393 193.006863 
L 235.002979 192.717293 
L 235.187565 193.01743 
L 235.372151 192.95023 
L 235.556737 192.737446 
L 235.741323 193.091052 
L 235.925908 192.737572 
L 236.110494 192.669605 
L 236.29508 193.122699 
L 236.848838 193.051993 
L 237.033424 193.142211 
L 237.218009 192.989392 
L 237.956353 193.199065 
L 238.140939 193.05404 
L 238.325525 193.076439 
L 238.510111 192.971252 
L 238.694696 193.367547 
L 239.063868 193.176535 
L 239.248454 193.523171 
L 239.43304 193.152353 
L 239.617626 193.392409 
L 239.802212 193.20308 
L 239.986797 193.439316 
L 240.725141 193.211715 
L 240.909727 193.426703 
L 241.094313 193.452652 
L 241.278899 193.61109 
L 241.64807 193.453859 
L 241.832656 193.402703 
L 242.017242 193.765456 
L 242.386414 193.644818 
L 242.571 193.836526 
L 242.755586 193.585081 
L 243.124757 193.838671 
L 243.493929 193.567663 
L 243.678515 193.785791 
L 244.047687 193.525803 
L 244.232272 193.400718 
L 244.416858 193.806882 
L 244.78603 193.728501 
L 244.970616 193.384073 
L 245.155202 193.810322 
L 245.524374 194.027582 
L 245.708959 193.766406 
L 245.893545 194.10252 
L 246.262717 193.787747 
L 246.447303 194.183099 
L 246.631889 194.189508 
L 246.816475 193.878324 
L 247.00106 194.154183 
L 247.370232 193.885859 
L 247.554818 194.132779 
L 247.739404 193.948722 
L 247.92399 193.975464 
L 248.108576 194.131902 
L 248.477747 194.11429 
L 249.031505 194.12781 
L 249.216091 194.337438 
L 249.400677 193.984919 
L 249.585263 194.293711 
L 249.769848 193.929835 
L 249.954434 194.326794 
L 250.13902 194.301503 
L 250.323606 194.465559 
L 250.692778 194.288475 
L 250.877364 194.411622 
L 251.06195 194.131186 
L 251.615707 194.621837 
L 251.800293 194.308178 
L 251.984879 194.509917 
L 252.169465 194.507528 
L 252.354051 194.632676 
L 252.538636 194.148594 
L 252.723222 194.869003 
L 253.092394 194.520341 
L 253.27698 194.607692 
L 253.461566 194.350247 
L 253.830738 194.650857 
L 254.015323 194.375601 
L 254.199909 194.744953 
L 254.384495 194.830309 
L 254.753667 194.699361 
L 254.938253 194.807609 
L 255.122839 194.621445 
L 255.49201 194.886416 
L 255.676596 194.497529 
L 255.861182 195.211988 
L 256.045768 194.858637 
L 256.599526 194.69793 
L 256.784111 195.209192 
L 257.153283 194.730168 
L 257.337869 194.730769 
L 257.707041 194.990389 
L 257.891627 195.05471 
L 258.076212 195.303599 
L 258.260798 195.311564 
L 258.445384 194.923395 
L 258.999142 195.369908 
L 259.183728 195.047771 
L 259.368314 195.111392 
L 259.552899 195.297504 
L 259.737485 194.929218 
L 260.106657 195.422493 
L 260.291243 195.451802 
L 260.660415 194.936001 
L 261.029586 195.269205 
L 261.214172 194.963617 
L 261.583344 195.57856 
L 261.952516 195.100469 
L 262.137102 195.385011 
L 262.690859 195.453079 
L 263.060031 195.32226 
L 263.244617 195.394111 
L 263.429203 195.040368 
L 263.798374 195.542916 
L 264.167546 195.491725 
L 264.352132 195.676674 
L 264.536718 195.611993 
L 264.721304 195.329365 
L 264.90589 195.417254 
L 265.090475 194.911005 
L 265.275061 195.482996 
L 265.459647 195.245834 
L 265.828819 195.800554 
L 266.013405 195.672245 
L 266.197991 195.944256 
L 266.382577 195.715465 
L 266.567162 195.862797 
L 266.751748 195.599368 
L 266.936334 196.073943 
L 267.674678 195.665677 
L 267.859263 196.055987 
L 268.043849 195.74963 
L 268.228435 195.996459 
L 268.413021 195.973635 
L 268.597607 195.779235 
L 268.782193 195.909758 
L 268.966779 195.885386 
L 269.151365 195.629685 
L 269.33595 196.041803 
L 269.889708 195.768564 
L 270.074294 196.129608 
L 270.25888 195.89148 
L 270.443466 196.015288 
L 270.628051 195.839981 
L 270.812637 196.126739 
L 271.181809 195.933964 
L 271.366395 196.073237 
L 271.550981 195.805361 
L 271.735567 196.181115 
L 271.920153 196.231285 
L 272.104738 196.085626 
L 272.289324 196.347574 
L 272.47391 196.105027 
L 272.843082 196.232586 
L 273.027668 196.049052 
L 273.212254 196.164695 
L 273.396839 195.980792 
L 273.581425 196.384249 
L 273.766011 195.810605 
L 273.950597 196.553727 
L 274.135183 196.316211 
L 274.688941 196.193658 
L 275.058112 196.640741 
L 275.242698 196.384194 
L 275.427284 196.552221 
L 275.61187 196.247004 
L 275.981042 196.458765 
L 276.165627 196.313486 
L 276.534799 196.376571 
L 276.903971 196.832879 
L 277.088557 196.369465 
L 277.457729 196.87174 
L 277.642314 196.910985 
L 277.8269 196.502791 
L 278.011486 196.419215 
L 278.380658 196.783992 
L 278.565244 196.321908 
L 278.934415 196.670699 
L 279.857345 196.694158 
L 280.041931 196.920777 
L 280.226517 196.623318 
L 280.411102 196.810973 
L 280.780274 196.720038 
L 281.334032 196.704402 
L 281.518618 196.803348 
L 281.703203 196.549371 
L 281.887789 196.954697 
L 282.072375 196.727867 
L 282.256961 197.201155 
L 282.441547 197.293348 
L 282.626133 196.846418 
L 282.810719 196.710838 
L 282.995305 197.103588 
L 283.17989 197.128242 
L 283.364476 196.785476 
L 283.549062 196.79389 
L 283.733648 197.06453 
L 283.918234 196.731176 
L 284.10282 196.898225 
L 284.287406 196.904068 
L 284.471991 197.122288 
L 285.210335 196.996795 
L 285.394921 197.385218 
L 285.579507 196.974309 
L 285.764093 197.270608 
L 285.948678 197.012296 
L 286.133264 197.289394 
L 286.31785 197.185403 
L 286.502436 197.428031 
L 286.871608 197.140969 
L 287.056194 197.215641 
L 287.240779 197.078664 
L 287.425365 197.378557 
L 287.794537 197.011464 
L 287.979123 197.336721 
L 288.163709 196.940842 
L 288.532881 197.639883 
L 288.902052 197.23334 
L 289.45581 197.566124 
L 289.640396 197.364652 
L 290.194153 197.554704 
L 290.378739 197.516121 
L 290.747911 197.181591 
L 291.117083 197.481616 
L 291.301669 197.357007 
L 291.67084 197.479546 
L 291.855426 197.66602 
L 292.224598 197.383493 
L 292.59377 197.692248 
L 293.147527 197.732549 
L 293.332113 197.977129 
L 293.701285 197.60072 
L 293.885871 197.643283 
L 294.070457 197.88578 
L 294.624214 197.370357 
L 294.8088 198.118505 
L 294.993386 197.613063 
L 295.362558 197.61442 
L 295.731729 197.833124 
L 295.916315 197.513246 
L 296.285487 198.164016 
L 296.470073 197.758233 
L 296.654659 197.924688 
L 296.839245 197.463847 
L 297.02383 198.199758 
L 297.208416 197.809873 
L 297.393002 197.955072 
L 297.762174 197.729778 
L 298.131346 198.029336 
L 298.315932 197.816961 
L 298.685103 198.145525 
L 298.869689 197.910744 
L 299.238861 198.235159 
L 299.423447 197.970063 
L 299.792618 198.302472 
L 300.16179 197.988192 
L 300.346376 198.240409 
L 300.530962 197.903335 
L 300.900134 198.219686 
L 301.269305 197.994495 
L 301.453891 198.235787 
L 302.376821 197.977925 
L 302.930578 198.3326 
L 303.115164 198.798635 
L 303.29975 198.232292 
L 303.484336 198.525922 
L 303.668922 198.314197 
L 303.853508 198.391689 
L 304.038093 198.616583 
L 304.222679 198.192947 
L 304.407265 198.099473 
L 304.591851 198.368535 
L 304.776437 198.288296 
L 304.961023 198.380441 
L 305.145609 198.278991 
L 305.51478 198.666887 
L 305.699366 198.37422 
L 305.883952 198.53838 
L 306.068538 198.269717 
L 306.253124 198.55901 
L 306.622296 198.302941 
L 306.806881 198.953146 
L 306.991467 198.470552 
L 307.176053 198.732319 
L 307.360639 198.725116 
L 307.545225 198.252612 
L 307.914397 198.679541 
L 308.098982 198.49179 
L 308.283568 198.574305 
L 308.468154 198.27867 
L 308.65274 198.774632 
L 309.021912 198.541054 
L 309.206498 199.092541 
L 309.391084 198.564442 
L 309.575669 198.561643 
L 309.760255 198.712205 
L 309.944841 199.0697 
L 310.129427 198.648654 
L 310.314013 198.97056 
L 310.498599 199.013175 
L 310.683185 198.662173 
L 310.86777 198.640536 
L 311.052356 198.907953 
L 311.236942 198.592329 
L 311.421528 198.825916 
L 311.606114 198.677811 
L 311.7907 198.895411 
L 312.344457 198.702775 
L 312.529043 199.110742 
L 313.082801 199.020216 
L 313.451973 198.658604 
L 313.821144 199.155907 
L 314.00573 198.941634 
L 314.374902 198.940293 
L 314.744074 199.072047 
L 315.113245 199.027552 
L 315.297831 198.861838 
L 315.482417 199.102705 
L 315.851589 198.967974 
L 316.220761 199.397992 
L 316.405347 198.821142 
L 316.589932 199.170394 
L 316.774518 199.18113 
L 316.959104 198.88887 
L 317.697448 199.472835 
L 317.882033 199.200436 
L 318.066619 199.284809 
L 318.251205 199.079696 
L 318.435791 199.295895 
L 318.620377 199.102292 
L 318.804963 199.211198 
L 318.989549 199.174197 
L 319.174135 199.004862 
L 319.35872 199.648988 
L 319.727892 199.144254 
L 319.912478 199.383771 
L 320.097064 199.109372 
L 320.28165 199.101617 
L 320.466236 199.229158 
L 320.650821 199.601177 
L 320.835407 199.189862 
L 321.204579 199.324074 
L 321.389165 199.43087 
L 321.573751 199.683822 
L 321.758337 199.061866 
L 321.942923 199.244687 
L 322.127508 199.150742 
L 322.312094 199.620397 
L 322.49668 199.457625 
L 322.865852 199.757582 
L 323.050438 199.448806 
L 323.235024 199.518333 
L 323.419609 199.303142 
L 323.604195 199.606496 
L 323.973367 199.493048 
L 324.157953 199.438507 
L 324.527125 199.764 
L 324.711711 199.568179 
L 325.265468 199.767622 
L 325.450054 199.470206 
L 325.819226 199.751891 
L 326.003812 199.830019 
L 326.188397 199.689935 
L 327.111327 200.031983 
L 327.295913 199.720167 
L 327.480499 200.068327 
L 327.665084 199.498579 
L 327.84967 199.879199 
L 328.034256 199.664345 
L 328.218842 199.983871 
L 328.588014 199.764919 
L 328.7726 199.34406 
L 328.957185 199.785283 
L 329.141771 199.851623 
L 329.326357 199.713102 
L 330.064701 199.867917 
L 330.433872 199.775484 
L 330.618458 200.077448 
L 330.98763 200.014771 
L 331.356802 200.186653 
L 331.541388 199.546573 
L 331.725973 200.221053 
L 331.910559 200.161422 
L 332.095145 199.780934 
L 332.464317 199.952505 
L 332.648903 200.306671 
L 332.833489 199.84264 
L 333.018075 200.001555 
L 333.20266 199.886152 
L 333.387246 200.08984 
L 333.571832 200.065588 
L 333.756418 199.710153 
L 333.941004 199.944876 
L 334.12559 200.426413 
L 334.310176 199.725758 
L 334.310176 199.725758 
" clip-path="url(#p31a644d9ac)" style="fill: none; stroke: #fede91; stroke-width: 1.5; stroke-linecap: square"/>
   </g>
   <g id="line2d_17">
    <path d="M 60.4188 -1 
L 61.123092 17.604277 
L 61.861436 32.327339 
L 62.784365 46.499829 
L 63.89188 59.523653 
L 64.999395 69.724698 
L 66.106911 78.037029 
L 67.399012 86.094493 
L 69.060285 94.436657 
L 70.1678 99.191797 
L 71.644487 104.596597 
L 73.674931 110.901796 
L 75.52079 115.727532 
L 78.289578 121.759377 
L 80.87378 126.44112 
L 82.350467 128.770119 
L 84.196326 131.395924 
L 84.565497 131.93527 
L 85.119255 132.658823 
L 86.595942 134.519825 
L 88.626386 136.880693 
L 90.103073 138.438802 
L 91.395174 139.715984 
L 93.425619 141.59964 
L 95.271478 143.089997 
L 95.825235 143.622166 
L 96.378993 144.062121 
L 102.654912 148.504895 
L 103.024084 148.732767 
L 103.947013 149.306388 
L 105.4237 150.189089 
L 115.206751 155.156918 
L 117.975539 156.329949 
L 118.529297 156.570111 
L 127.389419 159.83224 
L 133.296166 161.689877 
L 134.219096 161.959206 
L 139.756672 163.486469 
L 153.046854 166.589267 
L 154.154369 166.803072 
L 155.631056 167.093494 
L 158.58443 167.687796 
L 159.322774 167.8296 
L 162.091562 168.353075 
L 163.014491 168.512953 
L 163.752834 168.646348 
L 166.337037 169.107176 
L 169.659582 169.663045 
L 170.582511 169.771492 
L 171.690027 169.982841 
L 172.42837 170.097933 
L 174.274229 170.411946 
L 194.394088 173.138488 
L 195.686189 173.276863 
L 196.97829 173.427873 
L 198.270392 173.574193 
L 199.747078 173.759487 
L 200.485422 173.824599 
L 203.069624 174.137001 
L 203.807968 174.204844 
L 205.284654 174.37524 
L 205.838412 174.423532 
L 206.945927 174.544687 
L 207.684271 174.606003 
L 209.160958 174.777924 
L 211.74516 175.05349 
L 212.114332 175.088017 
L 213.037261 175.164296 
L 215.621463 175.425441 
L 216.359807 175.46627 
L 217.282736 175.555849 
L 218.021079 175.647374 
L 225.773686 176.335395 
L 227.434959 176.47556 
L 227.988716 176.551632 
L 228.72706 176.60359 
L 229.834575 176.702091 
L 230.572918 176.767056 
L 231.495848 176.859013 
L 232.049605 176.882429 
L 235.556737 177.166903 
L 236.110494 177.195987 
L 237.218009 177.305668 
L 238.694696 177.37856 
L 239.063868 177.462328 
L 239.43304 177.487213 
L 242.017242 177.671782 
L 243.309343 177.767635 
L 245.339788 177.940377 
L 247.00106 178.038708 
L 249.400677 178.192683 
L 255.307424 178.62825 
L 294.624214 180.94902 
L 295.731729 180.984754 
L 296.839245 181.072474 
L 297.577588 181.068394 
L 299.054275 181.167818 
L 301.08472 181.229176 
L 301.638477 181.302893 
L 302.376821 181.293833 
L 303.115164 181.362938 
L 305.145609 181.45232 
L 306.253124 181.514325 
L 307.360639 181.547388 
L 321.019993 182.169135 
L 321.758337 182.205705 
L 324.342539 182.32608 
L 329.510943 182.528089 
L 331.725973 182.626131 
L 334.310176 182.718762 
L 334.310176 182.718762 
" clip-path="url(#p31a644d9ac)" style="fill: none; stroke: #8fbddf; stroke-width: 1.5; stroke-linecap: square"/>
   </g>
   <g id="patch_3">
    <path d="M 43.78125 299.518125 
L 43.78125 22.318125 
" style="fill: none; stroke: #000000; stroke-width: 0.8; stroke-linejoin: miter; stroke-linecap: square"/>
   </g>
   <g id="patch_4">
    <path d="M 348.144886 299.518125 
L 348.144886 22.318125 
" style="fill: none; stroke: #000000; stroke-width: 0.8; stroke-linejoin: miter; stroke-linecap: square"/>
   </g>
   <g id="patch_5">
    <path d="M 43.78125 299.518125 
L 348.144886 299.518125 
" style="fill: none; stroke: #000000; stroke-width: 0.8; stroke-linejoin: miter; stroke-linecap: square"/>
   </g>
   <g id="patch_6">
    <path d="M 43.78125 22.318125 
L 348.144886 22.318125 
" style="fill: none; stroke: #000000; stroke-width: 0.8; stroke-linejoin: miter; stroke-linecap: square"/>
   </g>
   <g id="text_18">
    <!-- Loss -->
    <g transform="translate(182.802443 16.318125) scale(0.12 -0.12)">
     <use xlink:href="#DejaVuSans-4c"/>
     <use xlink:href="#DejaVuSans-6f" x="53.962891"/>
     <use xlink:href="#DejaVuSans-73" x="115.144531"/>
     <use xlink:href="#DejaVuSans-73" x="167.244141"/>
    </g>
   </g>
   <g id="legend_1">
    <g id="patch_7">
     <path d="M 260.044886 59.674375 
L 341.144886 59.674375 
Q 343.144886 59.674375 343.144886 57.674375 
L 343.144886 29.318125 
Q 343.144886 27.318125 341.144886 27.318125 
L 260.044886 27.318125 
Q 258.044886 27.318125 258.044886 29.318125 
L 258.044886 57.674375 
Q 258.044886 59.674375 260.044886 59.674375 
z
" style="fill: #ffffff; opacity: 0.8; stroke: #cccccc; stroke-linejoin: miter"/>
    </g>
    <g id="line2d_18">
     <path d="M 262.044886 35.416562 
L 272.044886 35.416562 
L 282.044886 35.416562 
" style="fill: none; stroke: #fede91; stroke-width: 1.5; stroke-linecap: square"/>
    </g>
    <g id="text_19">
     <!-- Train Loss -->
     <g transform="translate(290.044886 38.916562) scale(0.1 -0.1)">
      <defs>
       <path id="DejaVuSans-54" d="M -19 4666 
L 3928 4666 
L 3928 4134 
L 2272 4134 
L 2272 0 
L 1638 0 
L 1638 4134 
L -19 4134 
L -19 4666 
z
" transform="scale(0.015625)"/>
       <path id="DejaVuSans-72" d="M 2631 2963 
Q 2534 3019 2420 3045 
Q 2306 3072 2169 3072 
Q 1681 3072 1420 2755 
Q 1159 2438 1159 1844 
L 1159 0 
L 581 0 
L 581 3500 
L 1159 3500 
L 1159 2956 
Q 1341 3275 1631 3429 
Q 1922 3584 2338 3584 
Q 2397 3584 2469 3576 
Q 2541 3569 2628 3553 
L 2631 2963 
z
" transform="scale(0.015625)"/>
       <path id="DejaVuSans-61" d="M 2194 1759 
Q 1497 1759 1228 1600 
Q 959 1441 959 1056 
Q 959 750 1161 570 
Q 1363 391 1709 391 
Q 2188 391 2477 730 
Q 2766 1069 2766 1631 
L 2766 1759 
L 2194 1759 
z
M 3341 1997 
L 3341 0 
L 2766 0 
L 2766 531 
Q 2569 213 2275 61 
Q 1981 -91 1556 -91 
Q 1019 -91 701 211 
Q 384 513 384 1019 
Q 384 1609 779 1909 
Q 1175 2209 1959 2209 
L 2766 2209 
L 2766 2266 
Q 2766 2663 2505 2880 
Q 2244 3097 1772 3097 
Q 1472 3097 1187 3025 
Q 903 2953 641 2809 
L 641 3341 
Q 956 3463 1253 3523 
Q 1550 3584 1831 3584 
Q 2591 3584 2966 3190 
Q 3341 2797 3341 1997 
z
" transform="scale(0.015625)"/>
       <path id="DejaVuSans-69" d="M 603 3500 
L 1178 3500 
L 1178 0 
L 603 0 
L 603 3500 
z
M 603 4863 
L 1178 4863 
L 1178 4134 
L 603 4134 
L 603 4863 
z
" transform="scale(0.015625)"/>
       <path id="DejaVuSans-6e" d="M 3513 2113 
L 3513 0 
L 2938 0 
L 2938 2094 
Q 2938 2591 2744 2837 
Q 2550 3084 2163 3084 
Q 1697 3084 1428 2787 
Q 1159 2491 1159 1978 
L 1159 0 
L 581 0 
L 581 3500 
L 1159 3500 
L 1159 2956 
Q 1366 3272 1645 3428 
Q 1925 3584 2291 3584 
Q 2894 3584 3203 3211 
Q 3513 2838 3513 2113 
z
" transform="scale(0.015625)"/>
       <path id="DejaVuSans-20" transform="scale(0.015625)"/>
      </defs>
      <use xlink:href="#DejaVuSans-54"/>
      <use xlink:href="#DejaVuSans-72" x="46.333984"/>
      <use xlink:href="#DejaVuSans-61" x="87.447266"/>
      <use xlink:href="#DejaVuSans-69" x="148.726562"/>
      <use xlink:href="#DejaVuSans-6e" x="176.509766"/>
      <use xlink:href="#DejaVuSans-20" x="239.888672"/>
      <use xlink:href="#DejaVuSans-4c" x="271.675781"/>
      <use xlink:href="#DejaVuSans-6f" x="325.638672"/>
      <use xlink:href="#DejaVuSans-73" x="386.820312"/>
      <use xlink:href="#DejaVuSans-73" x="438.919922"/>
     </g>
    </g>
    <g id="line2d_19">
     <path d="M 262.044886 50.094688 
L 272.044886 50.094688 
L 282.044886 50.094688 
" style="fill: none; stroke: #8fbddf; stroke-width: 1.5; stroke-linecap: square"/>
    </g>
    <g id="text_20">
     <!-- Test Loss -->
     <g transform="translate(290.044886 53.594688) scale(0.1 -0.1)">
      <defs>
       <path id="DejaVuSans-65" d="M 3597 1894 
L 3597 1613 
L 953 1613 
Q 991 1019 1311 708 
Q 1631 397 2203 397 
Q 2534 397 2845 478 
Q 3156 559 3463 722 
L 3463 178 
Q 3153 47 2828 -22 
Q 2503 -91 2169 -91 
Q 1331 -91 842 396 
Q 353 884 353 1716 
Q 353 2575 817 3079 
Q 1281 3584 2069 3584 
Q 2775 3584 3186 3129 
Q 3597 2675 3597 1894 
z
M 3022 2063 
Q 3016 2534 2758 2815 
Q 2500 3097 2075 3097 
Q 1594 3097 1305 2825 
Q 1016 2553 972 2059 
L 3022 2063 
z
" transform="scale(0.015625)"/>
       <path id="DejaVuSans-74" d="M 1172 4494 
L 1172 3500 
L 2356 3500 
L 2356 3053 
L 1172 3053 
L 1172 1153 
Q 1172 725 1289 603 
Q 1406 481 1766 481 
L 2356 481 
L 2356 0 
L 1766 0 
Q 1100 0 847 248 
Q 594 497 594 1153 
L 594 3053 
L 172 3053 
L 172 3500 
L 594 3500 
L 594 4494 
L 1172 4494 
z
" transform="scale(0.015625)"/>
      </defs>
      <use xlink:href="#DejaVuSans-54"/>
      <use xlink:href="#DejaVuSans-65" x="44.083984"/>
      <use xlink:href="#DejaVuSans-73" x="105.607422"/>
      <use xlink:href="#DejaVuSans-74" x="157.707031"/>
      <use xlink:href="#DejaVuSans-20" x="196.916016"/>
      <use xlink:href="#DejaVuSans-4c" x="228.703125"/>
      <use xlink:href="#DejaVuSans-6f" x="282.666016"/>
      <use xlink:href="#DejaVuSans-73" x="343.847656"/>
      <use xlink:href="#DejaVuSans-73" x="395.947266"/>
     </g>
    </g>
   </g>
  </g>
  <g id="axes_2">
   <g id="patch_8">
    <path d="M 409.017614 299.518125 
L 713.38125 299.518125 
L 713.38125 22.318125 
L 409.017614 22.318125 
z
" style="fill: #ffffff"/>
   </g>
   <g id="matplotlib.axis_3">
    <g id="xtick_9">
     <g id="line2d_20">
      <g>
       <use xlink:href="#medaf0ab61f" x="422.667739" y="299.518125" style="stroke: #000000; stroke-width: 0.8"/>
      </g>
     </g>
     <g id="text_21">
      <!-- 0 -->
      <g transform="translate(419.486489 314.116563) scale(0.1 -0.1)">
       <use xlink:href="#DejaVuSans-30"/>
      </g>
     </g>
    </g>
    <g id="xtick_10">
     <g id="line2d_21">
      <g>
       <use xlink:href="#medaf0ab61f" x="459.584912" y="299.518125" style="stroke: #000000; stroke-width: 0.8"/>
      </g>
     </g>
     <g id="text_22">
      <!-- 200 -->
      <g transform="translate(450.041162 314.116563) scale(0.1 -0.1)">
       <use xlink:href="#DejaVuSans-32"/>
       <use xlink:href="#DejaVuSans-30" x="63.623047"/>
       <use xlink:href="#DejaVuSans-30" x="127.246094"/>
      </g>
     </g>
    </g>
    <g id="xtick_11">
     <g id="line2d_22">
      <g>
       <use xlink:href="#medaf0ab61f" x="496.502085" y="299.518125" style="stroke: #000000; stroke-width: 0.8"/>
      </g>
     </g>
     <g id="text_23">
      <!-- 400 -->
      <g transform="translate(486.958335 314.116563) scale(0.1 -0.1)">
       <use xlink:href="#DejaVuSans-34"/>
       <use xlink:href="#DejaVuSans-30" x="63.623047"/>
       <use xlink:href="#DejaVuSans-30" x="127.246094"/>
      </g>
     </g>
    </g>
    <g id="xtick_12">
     <g id="line2d_23">
      <g>
       <use xlink:href="#medaf0ab61f" x="533.419259" y="299.518125" style="stroke: #000000; stroke-width: 0.8"/>
      </g>
     </g>
     <g id="text_24">
      <!-- 600 -->
      <g transform="translate(523.875509 314.116563) scale(0.1 -0.1)">
       <use xlink:href="#DejaVuSans-36"/>
       <use xlink:href="#DejaVuSans-30" x="63.623047"/>
       <use xlink:href="#DejaVuSans-30" x="127.246094"/>
      </g>
     </g>
    </g>
    <g id="xtick_13">
     <g id="line2d_24">
      <g>
       <use xlink:href="#medaf0ab61f" x="570.336432" y="299.518125" style="stroke: #000000; stroke-width: 0.8"/>
      </g>
     </g>
     <g id="text_25">
      <!-- 800 -->
      <g transform="translate(560.792682 314.116563) scale(0.1 -0.1)">
       <use xlink:href="#DejaVuSans-38"/>
       <use xlink:href="#DejaVuSans-30" x="63.623047"/>
       <use xlink:href="#DejaVuSans-30" x="127.246094"/>
      </g>
     </g>
    </g>
    <g id="xtick_14">
     <g id="line2d_25">
      <g>
       <use xlink:href="#medaf0ab61f" x="607.253606" y="299.518125" style="stroke: #000000; stroke-width: 0.8"/>
      </g>
     </g>
     <g id="text_26">
      <!-- 1000 -->
      <g transform="translate(594.528606 314.116563) scale(0.1 -0.1)">
       <use xlink:href="#DejaVuSans-31"/>
       <use xlink:href="#DejaVuSans-30" x="63.623047"/>
       <use xlink:href="#DejaVuSans-30" x="127.246094"/>
       <use xlink:href="#DejaVuSans-30" x="190.869141"/>
      </g>
     </g>
    </g>
    <g id="xtick_15">
     <g id="line2d_26">
      <g>
       <use xlink:href="#medaf0ab61f" x="644.170779" y="299.518125" style="stroke: #000000; stroke-width: 0.8"/>
      </g>
     </g>
     <g id="text_27">
      <!-- 1200 -->
      <g transform="translate(631.445779 314.116563) scale(0.1 -0.1)">
       <use xlink:href="#DejaVuSans-31"/>
       <use xlink:href="#DejaVuSans-32" x="63.623047"/>
       <use xlink:href="#DejaVuSans-30" x="127.246094"/>
       <use xlink:href="#DejaVuSans-30" x="190.869141"/>
      </g>
     </g>
    </g>
    <g id="xtick_16">
     <g id="line2d_27">
      <g>
       <use xlink:href="#medaf0ab61f" x="681.087953" y="299.518125" style="stroke: #000000; stroke-width: 0.8"/>
      </g>
     </g>
     <g id="text_28">
      <!-- 1400 -->
      <g transform="translate(668.362953 314.116563) scale(0.1 -0.1)">
       <use xlink:href="#DejaVuSans-31"/>
       <use xlink:href="#DejaVuSans-34" x="63.623047"/>
       <use xlink:href="#DejaVuSans-30" x="127.246094"/>
       <use xlink:href="#DejaVuSans-30" x="190.869141"/>
      </g>
     </g>
    </g>
    <g id="text_29">
     <!-- Epoch -->
     <g transform="translate(545.888494 327.794688) scale(0.1 -0.1)">
      <use xlink:href="#DejaVuSans-45"/>
      <use xlink:href="#DejaVuSans-70" x="63.183594"/>
      <use xlink:href="#DejaVuSans-6f" x="126.660156"/>
      <use xlink:href="#DejaVuSans-63" x="187.841797"/>
      <use xlink:href="#DejaVuSans-68" x="242.822266"/>
     </g>
    </g>
   </g>
   <g id="matplotlib.axis_4">
    <g id="ytick_8">
     <g id="line2d_28">
      <g>
       <use xlink:href="#m4b9bcab80e" x="409.017614" y="299.518125" style="stroke: #000000; stroke-width: 0.8"/>
      </g>
     </g>
     <g id="text_30">
      <!-- 0.700 -->
      <g transform="translate(373.389489 303.317344) scale(0.1 -0.1)">
       <use xlink:href="#DejaVuSans-30"/>
       <use xlink:href="#DejaVuSans-2e" x="63.623047"/>
       <use xlink:href="#DejaVuSans-37" x="95.410156"/>
       <use xlink:href="#DejaVuSans-30" x="159.033203"/>
       <use xlink:href="#DejaVuSans-30" x="222.65625"/>
      </g>
     </g>
    </g>
    <g id="ytick_9">
     <g id="line2d_29">
      <g>
       <use xlink:href="#m4b9bcab80e" x="409.017614" y="264.868125" style="stroke: #000000; stroke-width: 0.8"/>
      </g>
     </g>
     <g id="text_31">
      <!-- 0.725 -->
      <g transform="translate(373.389489 268.667344) scale(0.1 -0.1)">
       <use xlink:href="#DejaVuSans-30"/>
       <use xlink:href="#DejaVuSans-2e" x="63.623047"/>
       <use xlink:href="#DejaVuSans-37" x="95.410156"/>
       <use xlink:href="#DejaVuSans-32" x="159.033203"/>
       <use xlink:href="#DejaVuSans-35" x="222.65625"/>
      </g>
     </g>
    </g>
    <g id="ytick_10">
     <g id="line2d_30">
      <g>
       <use xlink:href="#m4b9bcab80e" x="409.017614" y="230.218125" style="stroke: #000000; stroke-width: 0.8"/>
      </g>
     </g>
     <g id="text_32">
      <!-- 0.750 -->
      <g transform="translate(373.389489 234.017344) scale(0.1 -0.1)">
       <use xlink:href="#DejaVuSans-30"/>
       <use xlink:href="#DejaVuSans-2e" x="63.623047"/>
       <use xlink:href="#DejaVuSans-37" x="95.410156"/>
       <use xlink:href="#DejaVuSans-35" x="159.033203"/>
       <use xlink:href="#DejaVuSans-30" x="222.65625"/>
      </g>
     </g>
    </g>
    <g id="ytick_11">
     <g id="line2d_31">
      <g>
       <use xlink:href="#m4b9bcab80e" x="409.017614" y="195.568125" style="stroke: #000000; stroke-width: 0.8"/>
      </g>
     </g>
     <g id="text_33">
      <!-- 0.775 -->
      <g transform="translate(373.389489 199.367344) scale(0.1 -0.1)">
       <use xlink:href="#DejaVuSans-30"/>
       <use xlink:href="#DejaVuSans-2e" x="63.623047"/>
       <use xlink:href="#DejaVuSans-37" x="95.410156"/>
       <use xlink:href="#DejaVuSans-37" x="159.033203"/>
       <use xlink:href="#DejaVuSans-35" x="222.65625"/>
      </g>
     </g>
    </g>
    <g id="ytick_12">
     <g id="line2d_32">
      <g>
       <use xlink:href="#m4b9bcab80e" x="409.017614" y="160.918125" style="stroke: #000000; stroke-width: 0.8"/>
      </g>
     </g>
     <g id="text_34">
      <!-- 0.800 -->
      <g transform="translate(373.389489 164.717344) scale(0.1 -0.1)">
       <use xlink:href="#DejaVuSans-30"/>
       <use xlink:href="#DejaVuSans-2e" x="63.623047"/>
       <use xlink:href="#DejaVuSans-38" x="95.410156"/>
       <use xlink:href="#DejaVuSans-30" x="159.033203"/>
       <use xlink:href="#DejaVuSans-30" x="222.65625"/>
      </g>
     </g>
    </g>
    <g id="ytick_13">
     <g id="line2d_33">
      <g>
       <use xlink:href="#m4b9bcab80e" x="409.017614" y="126.268125" style="stroke: #000000; stroke-width: 0.8"/>
      </g>
     </g>
     <g id="text_35">
      <!-- 0.825 -->
      <g transform="translate(373.389489 130.067344) scale(0.1 -0.1)">
       <use xlink:href="#DejaVuSans-30"/>
       <use xlink:href="#DejaVuSans-2e" x="63.623047"/>
       <use xlink:href="#DejaVuSans-38" x="95.410156"/>
       <use xlink:href="#DejaVuSans-32" x="159.033203"/>
       <use xlink:href="#DejaVuSans-35" x="222.65625"/>
      </g>
     </g>
    </g>
    <g id="ytick_14">
     <g id="line2d_34">
      <g>
       <use xlink:href="#m4b9bcab80e" x="409.017614" y="91.618125" style="stroke: #000000; stroke-width: 0.8"/>
      </g>
     </g>
     <g id="text_36">
      <!-- 0.850 -->
      <g transform="translate(373.389489 95.417344) scale(0.1 -0.1)">
       <use xlink:href="#DejaVuSans-30"/>
       <use xlink:href="#DejaVuSans-2e" x="63.623047"/>
       <use xlink:href="#DejaVuSans-38" x="95.410156"/>
       <use xlink:href="#DejaVuSans-35" x="159.033203"/>
       <use xlink:href="#DejaVuSans-30" x="222.65625"/>
      </g>
     </g>
    </g>
    <g id="ytick_15">
     <g id="line2d_35">
      <g>
       <use xlink:href="#m4b9bcab80e" x="409.017614" y="56.968125" style="stroke: #000000; stroke-width: 0.8"/>
      </g>
     </g>
     <g id="text_37">
      <!-- 0.875 -->
      <g transform="translate(373.389489 60.767344) scale(0.1 -0.1)">
       <use xlink:href="#DejaVuSans-30"/>
       <use xlink:href="#DejaVuSans-2e" x="63.623047"/>
       <use xlink:href="#DejaVuSans-38" x="95.410156"/>
       <use xlink:href="#DejaVuSans-37" x="159.033203"/>
       <use xlink:href="#DejaVuSans-35" x="222.65625"/>
      </g>
     </g>
    </g>
    <g id="ytick_16">
     <g id="line2d_36">
      <g>
       <use xlink:href="#m4b9bcab80e" x="409.017614" y="22.318125" style="stroke: #000000; stroke-width: 0.8"/>
      </g>
     </g>
     <g id="text_38">
      <!-- 0.900 -->
      <g transform="translate(373.389489 26.117344) scale(0.1 -0.1)">
       <defs>
        <path id="DejaVuSans-39" d="M 703 97 
L 703 672 
Q 941 559 1184 500 
Q 1428 441 1663 441 
Q 2288 441 2617 861 
Q 2947 1281 2994 2138 
Q 2813 1869 2534 1725 
Q 2256 1581 1919 1581 
Q 1219 1581 811 2004 
Q 403 2428 403 3163 
Q 403 3881 828 4315 
Q 1253 4750 1959 4750 
Q 2769 4750 3195 4129 
Q 3622 3509 3622 2328 
Q 3622 1225 3098 567 
Q 2575 -91 1691 -91 
Q 1453 -91 1209 -44 
Q 966 3 703 97 
z
M 1959 2075 
Q 2384 2075 2632 2365 
Q 2881 2656 2881 3163 
Q 2881 3666 2632 3958 
Q 2384 4250 1959 4250 
Q 1534 4250 1286 3958 
Q 1038 3666 1038 3163 
Q 1038 2656 1286 2365 
Q 1534 2075 1959 2075 
z
" transform="scale(0.015625)"/>
       </defs>
       <use xlink:href="#DejaVuSans-30"/>
       <use xlink:href="#DejaVuSans-2e" x="63.623047"/>
       <use xlink:href="#DejaVuSans-39" x="95.410156"/>
       <use xlink:href="#DejaVuSans-30" x="159.033203"/>
       <use xlink:href="#DejaVuSans-30" x="222.65625"/>
      </g>
     </g>
    </g>
    <g id="text_39">
     <!-- Accuracy -->
     <g transform="translate(367.309801 183.74625) rotate(-90) scale(0.1 -0.1)">
      <defs>
       <path id="DejaVuSans-41" d="M 2188 4044 
L 1331 1722 
L 3047 1722 
L 2188 4044 
z
M 1831 4666 
L 2547 4666 
L 4325 0 
L 3669 0 
L 3244 1197 
L 1141 1197 
L 716 0 
L 50 0 
L 1831 4666 
z
" transform="scale(0.015625)"/>
       <path id="DejaVuSans-75" d="M 544 1381 
L 544 3500 
L 1119 3500 
L 1119 1403 
Q 1119 906 1312 657 
Q 1506 409 1894 409 
Q 2359 409 2629 706 
Q 2900 1003 2900 1516 
L 2900 3500 
L 3475 3500 
L 3475 0 
L 2900 0 
L 2900 538 
Q 2691 219 2414 64 
Q 2138 -91 1772 -91 
Q 1169 -91 856 284 
Q 544 659 544 1381 
z
M 1991 3584 
L 1991 3584 
z
" transform="scale(0.015625)"/>
       <path id="DejaVuSans-79" d="M 2059 -325 
Q 1816 -950 1584 -1140 
Q 1353 -1331 966 -1331 
L 506 -1331 
L 506 -850 
L 844 -850 
Q 1081 -850 1212 -737 
Q 1344 -625 1503 -206 
L 1606 56 
L 191 3500 
L 800 3500 
L 1894 763 
L 2988 3500 
L 3597 3500 
L 2059 -325 
z
" transform="scale(0.015625)"/>
      </defs>
      <use xlink:href="#DejaVuSans-41"/>
      <use xlink:href="#DejaVuSans-63" x="66.658203"/>
      <use xlink:href="#DejaVuSans-63" x="121.638672"/>
      <use xlink:href="#DejaVuSans-75" x="176.619141"/>
      <use xlink:href="#DejaVuSans-72" x="239.998047"/>
      <use xlink:href="#DejaVuSans-61" x="281.111328"/>
      <use xlink:href="#DejaVuSans-63" x="342.390625"/>
      <use xlink:href="#DejaVuSans-79" x="397.371094"/>
     </g>
    </g>
   </g>
   <g id="line2d_37">
    <path d="M 423.93774 338.074375 
L 424.698183 299.379525 
L 425.067355 283.301925 
L 425.990284 254.750325 
L 426.17487 252.948525 
L 427.282385 233.405925 
L 427.651557 227.446125 
L 428.3899 215.387925 
L 428.574486 216.219525 
L 428.759072 211.229925 
L 428.943658 211.229925 
L 429.682001 204.022725 
L 429.866587 201.250725 
L 430.051173 200.973525 
L 430.420345 197.785725 
L 430.604931 197.369925 
L 430.789517 196.399725 
L 431.158688 193.489125 
L 431.343274 193.073325 
L 431.712446 190.578525 
L 431.897032 190.162725 
L 432.266204 186.559125 
L 432.450789 186.281925 
L 432.635375 184.895925 
L 432.819961 186.559125 
L 433.004547 184.895925 
L 433.189133 184.895925 
L 433.742891 180.599325 
L 433.927476 180.737925 
L 434.296648 178.658925 
L 434.481234 178.520325 
L 434.66582 176.857125 
L 434.850406 176.718525 
L 435.588749 173.530725 
L 435.773335 173.114925 
L 435.957921 171.728925 
L 436.142507 171.590325 
L 436.327093 170.065725 
L 436.511679 170.204325 
L 436.696264 168.956925 
L 436.88085 168.956925 
L 437.250022 167.570925 
L 437.434608 167.293725 
L 437.619194 166.739325 
L 437.80378 165.214725 
L 437.988365 166.323525 
L 438.357537 164.383125 
L 438.542123 164.244525 
L 438.726709 164.383125 
L 438.911295 163.412925 
L 439.095881 164.105925 
L 439.280467 162.304125 
L 439.649638 161.888325 
L 439.834224 160.640925 
L 440.01881 160.779525 
L 440.387982 158.700525 
L 440.572568 159.670725 
L 440.941739 157.730325 
L 441.126325 156.898725 
L 441.495497 158.146125 
L 441.680083 157.730325 
L 441.864669 156.482925 
L 442.049255 156.482925 
L 442.23384 155.374125 
L 442.418426 155.512725 
L 442.603012 156.067125 
L 442.787598 154.681125 
L 442.972184 155.096925 
L 443.15677 154.819725 
L 444.079699 151.770525 
L 444.264285 152.047725 
L 444.448871 151.909125 
L 444.818043 150.245925 
L 445.002628 149.691525 
L 445.3718 150.107325 
L 446.110144 148.859925 
L 446.29473 148.305525 
L 446.479315 148.444125 
L 446.663901 148.305525 
L 447.033073 147.612525 
L 447.217659 147.612525 
L 447.402245 147.335325 
L 447.586831 147.612525 
L 447.771416 147.612525 
L 447.956002 146.503725 
L 448.140588 146.780925 
L 448.325174 146.365125 
L 448.50976 145.533525 
L 449.063518 144.979125 
L 449.248103 144.563325 
L 449.432689 145.672125 
L 449.617275 144.701925 
L 449.801861 144.424725 
L 449.986447 144.701925 
L 450.171033 143.315925 
L 450.355619 143.454525 
L 450.540204 143.870325 
L 450.72479 143.038725 
L 450.909376 142.761525 
L 451.093962 143.593125 
L 451.64772 142.622925 
L 451.832306 143.177325 
L 452.016891 142.068525 
L 452.570649 141.514125 
L 452.755235 143.315925 
L 452.939821 141.652725 
L 453.124407 141.652725 
L 453.493578 141.791325 
L 453.678164 140.682525 
L 453.86275 140.959725 
L 454.047336 140.959725 
L 454.416508 141.098325 
L 454.601094 140.682525 
L 454.785679 140.821125 
L 454.970265 140.128125 
L 455.154851 140.959725 
L 455.524023 139.712325 
L 455.708609 139.296525 
L 455.893195 140.405325 
L 456.07778 140.128125 
L 456.262366 139.573725 
L 456.446952 139.573725 
L 456.631538 139.019325 
L 456.816124 139.157925 
L 457.00071 138.880725 
L 457.185296 139.712325 
L 457.369882 139.296525 
L 457.554467 138.049125 
L 457.739053 139.157925 
L 457.923639 138.603525 
L 458.292811 138.187725 
L 458.477397 138.464925 
L 458.661983 138.187725 
L 458.846568 138.326325 
L 459.21574 137.078925 
L 459.769498 137.494725 
L 459.954084 137.356125 
L 460.13867 136.940325 
L 460.323255 137.771925 
L 460.507841 136.940325 
L 460.692427 136.940325 
L 460.877013 137.217525 
L 461.061599 136.940325 
L 461.246185 136.940325 
L 461.615356 137.078925 
L 461.799942 136.940325 
L 462.169114 137.078925 
L 462.3537 136.385925 
L 462.538286 136.940325 
L 462.722872 134.999925 
L 462.907458 136.108725 
L 463.276629 134.722725 
L 463.461215 134.999925 
L 463.645801 135.692925 
L 463.830387 133.891125 
L 464.014973 134.999925 
L 464.199559 133.891125 
L 464.384144 134.861325 
L 464.56873 133.752525 
L 464.753316 134.029725 
L 464.937902 132.782325 
L 465.122488 132.505125 
L 465.307074 133.336725 
L 465.49166 132.643725 
L 465.676246 133.336725 
L 465.860831 132.643725 
L 466.045417 133.198125 
L 466.414589 133.198125 
L 466.599175 132.227925 
L 466.968347 132.920925 
L 467.152932 132.089325 
L 467.337518 132.366525 
L 467.70669 131.119125 
L 467.891276 131.673525 
L 468.075862 130.980525 
L 468.260448 131.396325 
L 468.629619 130.841925 
L 468.814205 130.148925 
L 469.183377 130.010325 
L 469.367963 130.287525 
L 469.552549 129.317325 
L 469.921721 129.733125 
L 470.106306 129.040125 
L 470.290892 129.317325 
L 470.475478 129.040125 
L 470.660064 129.455925 
L 470.84465 128.624325 
L 471.398407 128.901525 
L 471.767579 128.485725 
L 471.952165 128.762925 
L 472.136751 127.931325 
L 472.321337 127.931325 
L 472.505923 127.654125 
L 472.690509 128.069925 
L 472.875094 127.515525 
L 473.05968 127.654125 
L 473.244266 126.822525 
L 473.428852 126.961125 
L 473.613438 127.515525 
L 473.798024 127.515525 
L 473.98261 127.099725 
L 474.167195 127.515525 
L 474.536367 126.822525 
L 474.720953 126.822525 
L 475.090125 126.961125 
L 475.274711 126.683925 
L 475.643882 127.099725 
L 475.828468 125.713725 
L 476.013054 126.961125 
L 476.19764 125.990925 
L 476.382226 126.406725 
L 476.566812 126.406725 
L 476.751398 125.990925 
L 476.935983 125.297925 
L 477.305155 125.575125 
L 477.489741 125.436525 
L 477.674327 125.713725 
L 477.858913 125.575125 
L 478.043499 125.020725 
L 478.228085 125.575125 
L 478.41267 125.020725 
L 478.597256 124.050525 
L 478.781842 124.604925 
L 478.966428 124.604925 
L 479.151014 124.743525 
L 479.3356 124.327725 
L 479.520186 124.189125 
L 479.704771 123.634725 
L 479.889357 124.327725 
L 480.073943 124.327725 
L 480.258529 123.357525 
L 480.443115 123.357525 
L 480.627701 123.218925 
L 480.812287 123.496125 
L 480.996873 123.080325 
L 481.181458 123.496125 
L 481.366044 123.080325 
L 481.55063 123.080325 
L 481.735216 123.357525 
L 481.919802 122.664525 
L 482.104388 123.080325 
L 482.288974 122.803125 
L 482.473559 123.496125 
L 482.658145 123.357525 
L 482.842731 123.496125 
L 483.027317 123.080325 
L 483.211903 122.941725 
L 483.396489 122.248725 
L 483.581075 122.664525 
L 483.950246 122.664525 
L 484.319418 122.387325 
L 484.504004 123.080325 
L 484.873176 122.387325 
L 485.057762 122.525925 
L 485.242347 122.110125 
L 485.426933 122.387325 
L 485.611519 121.971525 
L 485.796105 122.525925 
L 485.980691 121.971525 
L 486.165277 122.387325 
L 486.349863 121.694325 
L 486.534449 122.248725 
L 486.719034 121.694325 
L 486.90362 122.248725 
L 487.272792 121.971525 
L 487.457378 121.278525 
L 487.641964 121.971525 
L 487.82655 122.110125 
L 488.011135 121.555725 
L 488.195721 122.387325 
L 488.380307 121.417125 
L 488.564893 121.694325 
L 488.749479 121.278525 
L 488.934065 122.248725 
L 489.118651 121.139925 
L 489.487822 121.555725 
L 489.672408 121.139925 
L 489.856994 121.278525 
L 490.04158 121.694325 
L 490.226166 121.139925 
L 490.595338 121.555725 
L 490.779923 121.139925 
L 491.149095 121.555725 
L 491.333681 121.139925 
L 491.518267 121.139925 
L 492.072025 120.169725 
L 492.625782 120.724125 
L 492.810368 120.446925 
L 492.994954 121.139925 
L 493.17954 121.001325 
L 493.364126 120.169725 
L 493.548712 120.169725 
L 493.917883 119.199525 
L 494.102469 119.892525 
L 494.287055 119.753925 
L 494.471641 120.724125 
L 494.656227 120.169725 
L 494.840813 120.308325 
L 495.025398 119.476725 
L 495.209984 120.862725 
L 495.39457 120.446925 
L 495.579156 120.724125 
L 495.763742 120.585525 
L 495.948328 120.724125 
L 496.132914 119.753925 
L 496.3175 120.031125 
L 496.502085 121.001325 
L 496.686671 120.031125 
L 496.871257 119.753925 
L 497.055843 119.892525 
L 497.240429 120.446925 
L 497.425015 120.308325 
L 497.609601 119.615325 
L 497.794186 120.446925 
L 497.978772 120.446925 
L 498.163358 120.031125 
L 498.347944 120.169725 
L 498.53253 119.753925 
L 498.717116 119.615325 
L 498.901702 120.446925 
L 499.086288 119.199525 
L 499.270873 119.753925 
L 499.455459 119.753925 
L 499.640045 119.892525 
L 500.009217 119.338125 
L 500.193803 118.783725 
L 500.378389 120.308325 
L 500.562974 119.615325 
L 500.74756 119.615325 
L 501.301318 120.169725 
L 501.485904 119.199525 
L 501.67049 119.060925 
L 501.855076 119.892525 
L 502.039661 119.476725 
L 502.224247 119.615325 
L 502.593419 119.199525 
L 502.778005 119.615325 
L 503.147177 118.783725 
L 503.331762 118.922325 
L 503.700934 119.615325 
L 503.88552 119.199525 
L 504.808449 118.367925 
L 504.993035 118.645125 
L 505.177621 118.229325 
L 505.546793 118.645125 
L 505.731379 117.674925 
L 505.915965 118.367925 
L 506.10055 118.367925 
L 506.285136 119.060925 
L 506.469722 118.367925 
L 506.654308 118.922325 
L 506.838894 117.952125 
L 507.02348 117.674925 
L 507.208066 118.229325 
L 507.392652 118.229325 
L 507.577237 119.338125 
L 507.761823 118.367925 
L 507.946409 119.199525 
L 508.130995 117.813525 
L 508.315581 118.367925 
L 508.500167 117.674925 
L 508.684753 118.367925 
L 509.053924 117.813525 
L 509.23851 117.952125 
L 509.423096 117.536325 
L 509.607682 117.952125 
L 509.792268 118.645125 
L 509.976854 118.783725 
L 510.16144 117.952125 
L 510.346025 117.813525 
L 510.715197 118.506525 
L 510.899783 117.952125 
L 511.268955 117.813525 
L 511.453541 118.229325 
L 511.638126 117.813525 
L 511.822712 117.813525 
L 512.007298 117.536325 
L 512.37647 118.229325 
L 512.745642 117.674925 
L 513.114813 118.090725 
L 513.299399 116.843325 
L 513.483985 117.813525 
L 513.668571 117.674925 
L 513.853157 117.952125 
L 514.406914 117.674925 
L 514.776086 117.813525 
L 514.960672 117.674925 
L 515.145258 117.952125 
L 515.329844 117.952125 
L 515.51443 117.674925 
L 515.699016 118.229325 
L 515.883601 116.704725 
L 516.068187 117.813525 
L 516.252773 117.120525 
L 516.621945 116.981925 
L 516.806531 117.120525 
L 516.991117 117.536325 
L 517.175703 117.120525 
L 517.544874 117.536325 
L 517.72946 117.674925 
L 517.914046 117.259125 
L 518.098632 117.674925 
L 518.283218 117.813525 
L 518.467804 117.536325 
L 518.652389 117.813525 
L 518.836975 116.843325 
L 519.390733 117.952125 
L 519.944491 117.397725 
L 520.129076 117.952125 
L 520.313662 117.952125 
L 520.682834 117.120525 
L 520.86742 117.397725 
L 521.236592 117.397725 
L 521.421177 117.536325 
L 521.605763 116.704725 
L 521.974935 117.674925 
L 522.159521 117.120525 
L 522.344107 117.120525 
L 522.528693 116.981925 
L 522.713279 117.397725 
L 523.08245 116.566125 
L 523.267036 117.397725 
L 523.451622 116.427525 
L 523.820794 117.259125 
L 524.189965 116.843325 
L 524.374551 116.704725 
L 524.559137 116.981925 
L 524.743723 116.981925 
L 525.112895 116.704725 
L 525.297481 117.259125 
L 525.482067 117.259125 
L 525.851238 116.427525 
L 526.035824 116.704725 
L 526.22041 116.150325 
L 526.404996 116.288925 
L 526.589582 116.981925 
L 526.774168 116.288925 
L 526.958753 116.150325 
L 527.143339 116.427525 
L 527.327925 116.150325 
L 527.512511 116.288925 
L 527.697097 115.595925 
L 528.066269 116.427525 
L 528.43544 115.595925 
L 528.804612 116.288925 
L 528.989198 116.150325 
L 529.35837 115.457325 
L 529.727541 115.180125 
L 529.912127 115.457325 
L 530.096713 116.011725 
L 530.281299 115.457325 
L 530.465885 115.734525 
L 530.650471 115.318725 
L 530.835057 115.180125 
L 531.019643 115.457325 
L 531.204228 115.180125 
L 531.5734 115.595925 
L 531.757986 115.041525 
L 531.942572 115.457325 
L 532.311744 114.764325 
L 533.050087 115.180125 
L 533.234673 115.180125 
L 533.419259 115.318725 
L 533.788431 115.041525 
L 533.973016 115.180125 
L 534.157602 114.764325 
L 534.342188 115.041525 
L 534.526774 115.041525 
L 534.71136 115.180125 
L 535.449703 114.625725 
L 535.634289 115.041525 
L 536.003461 115.180125 
L 536.188047 115.041525 
L 536.372633 115.457325 
L 536.557219 114.764325 
L 536.741804 114.902925 
L 536.92639 115.595925 
L 537.295562 114.625725 
L 537.480148 115.180125 
L 537.664734 114.625725 
L 537.84932 114.902925 
L 538.033905 114.209925 
L 538.218491 115.041525 
L 538.403077 114.902925 
L 538.587663 115.457325 
L 538.956835 114.902925 
L 539.141421 115.180125 
L 539.326007 114.487125 
L 539.510592 115.180125 
L 539.695178 114.902925 
L 539.879764 114.071325 
L 540.248936 114.764325 
L 540.433522 114.209925 
L 540.618108 114.487125 
L 540.802693 114.348525 
L 541.171865 114.764325 
L 541.356451 114.764325 
L 541.541037 114.625725 
L 541.725623 114.764325 
L 542.094795 114.071325 
L 542.27938 114.487125 
L 542.463966 113.655525 
L 542.648552 113.516925 
L 543.017724 114.487125 
L 543.386896 113.794125 
L 543.571482 114.348525 
L 543.940653 113.655525 
L 544.309825 113.655525 
L 544.494411 114.071325 
L 544.863583 113.101125 
L 545.232754 113.655525 
L 545.41734 113.101125 
L 545.601926 113.516925 
L 545.971098 113.655525 
L 546.709441 113.239725 
L 546.894027 113.239725 
L 547.078613 113.101125 
L 547.263199 113.378325 
L 547.447785 113.378325 
L 547.632371 113.239725 
L 547.816956 113.794125 
L 548.001542 113.239725 
L 548.186128 113.516925 
L 548.370714 113.516925 
L 548.5553 112.685325 
L 549.293643 113.101125 
L 549.478229 112.962525 
L 549.662815 113.516925 
L 549.847401 112.962525 
L 550.031987 112.962525 
L 550.216573 113.239725 
L 550.585744 112.823925 
L 550.77033 113.101125 
L 550.954916 113.101125 
L 551.139502 113.239725 
L 551.69326 112.408125 
L 551.877846 112.685325 
L 552.247017 112.546725 
L 552.431603 111.992325 
L 552.616189 112.130925 
L 552.800775 111.992325 
L 552.985361 112.962525 
L 553.169947 112.546725 
L 553.354532 112.685325 
L 553.539118 113.239725 
L 553.723704 111.992325 
L 553.90829 112.823925 
L 554.277462 112.130925 
L 554.462048 112.269525 
L 554.646634 113.101125 
L 554.831219 112.130925 
L 555.015805 112.269525 
L 555.200391 111.853725 
L 555.569563 112.546725 
L 555.754149 111.992325 
L 555.938735 111.992325 
L 556.307906 111.576525 
L 556.492492 112.130925 
L 556.677078 111.853725 
L 556.861664 111.853725 
L 557.04625 112.269525 
L 557.230836 113.655525 
L 557.415422 112.408125 
L 557.600007 112.269525 
L 557.784593 111.576525 
L 557.969179 111.853725 
L 558.153765 111.576525 
L 558.338351 112.408125 
L 558.522937 112.269525 
L 558.707523 112.408125 
L 558.892108 112.269525 
L 559.076694 111.299325 
L 559.26128 112.130925 
L 559.445866 111.437925 
L 559.630452 111.576525 
L 559.815038 112.269525 
L 559.999624 111.992325 
L 560.18421 112.685325 
L 560.368795 111.715125 
L 560.553381 112.546725 
L 560.737967 111.853725 
L 560.922553 111.992325 
L 561.291725 111.437925 
L 561.476311 111.853725 
L 562.030068 111.437925 
L 562.214654 112.269525 
L 562.583826 111.853725 
L 562.768412 111.715125 
L 562.952998 111.853725 
L 563.322169 111.576525 
L 563.506755 112.685325 
L 563.875927 111.576525 
L 564.060513 111.437925 
L 564.245099 111.992325 
L 564.429684 111.022125 
L 564.798856 111.576525 
L 564.983442 111.022125 
L 565.168028 112.269525 
L 565.5372 110.883525 
L 565.721786 111.437925 
L 565.906371 110.744925 
L 566.275543 111.715125 
L 566.460129 110.744925 
L 566.829301 111.437925 
L 567.198473 110.606325 
L 567.383058 111.853725 
L 567.567644 111.022125 
L 568.305988 111.437925 
L 568.490574 110.744925 
L 568.675159 111.992325 
L 568.859745 111.022125 
L 569.044331 111.022125 
L 569.228917 111.160725 
L 569.413503 110.744925 
L 569.598089 111.437925 
L 569.967261 110.883525 
L 570.151846 111.715125 
L 570.336432 110.606325 
L 570.521018 110.190525 
L 570.705604 111.992325 
L 570.89019 110.883525 
L 571.074776 111.437925 
L 571.443947 110.329125 
L 571.628533 111.022125 
L 571.813119 110.883525 
L 571.997705 111.160725 
L 572.182291 111.715125 
L 572.551463 110.467725 
L 572.736049 110.606325 
L 572.920634 111.576525 
L 573.10522 111.160725 
L 573.289806 110.329125 
L 573.474392 110.744925 
L 573.658978 110.744925 
L 573.843564 110.883525 
L 574.02815 110.606325 
L 574.212735 111.022125 
L 574.397321 111.022125 
L 574.581907 110.744925 
L 574.766493 111.715125 
L 574.951079 111.299325 
L 575.135665 111.160725 
L 575.320251 111.715125 
L 575.504837 111.160725 
L 575.689422 111.022125 
L 575.874008 111.853725 
L 576.058594 110.606325 
L 576.24318 110.329125 
L 576.612352 111.160725 
L 576.796938 111.437925 
L 576.981523 110.467725 
L 577.166109 113.378325 
L 577.350695 110.329125 
L 577.535281 111.853725 
L 577.719867 111.576525 
L 577.904453 111.853725 
L 578.089039 110.606325 
L 578.273625 110.606325 
L 578.45821 110.329125 
L 578.642796 110.329125 
L 578.827382 111.299325 
L 579.011968 111.576525 
L 579.196554 110.467725 
L 579.565726 111.299325 
L 579.750311 110.051925 
L 579.934897 110.051925 
L 580.119483 111.715125 
L 580.304069 110.467725 
L 580.488655 110.883525 
L 580.673241 110.606325 
L 580.857827 111.160725 
L 581.042413 109.636125 
L 581.226998 110.606325 
L 581.411584 110.606325 
L 581.59617 109.636125 
L 581.780756 111.160725 
L 581.965342 111.437925 
L 582.149928 110.051925 
L 582.334514 110.329125 
L 582.519099 111.022125 
L 582.703685 109.913325 
L 582.888271 110.190525 
L 583.072857 111.022125 
L 583.257443 109.774725 
L 583.442029 111.576525 
L 583.626615 111.299325 
L 583.811201 110.329125 
L 583.995786 112.823925 
L 584.364958 109.636125 
L 584.549544 109.497525 
L 584.73413 110.051925 
L 584.918716 109.774725 
L 585.103302 110.883525 
L 585.472473 109.636125 
L 585.657059 110.190525 
L 585.841645 111.160725 
L 586.026231 110.190525 
L 586.210817 110.051925 
L 586.395403 110.190525 
L 586.579989 111.160725 
L 586.764574 110.051925 
L 586.94916 110.467725 
L 587.133746 109.636125 
L 587.318332 109.497525 
L 587.502918 109.913325 
L 588.056675 110.190525 
L 588.425847 109.220325 
L 588.610433 110.051925 
L 588.979605 110.744925 
L 589.164191 110.051925 
L 589.348777 110.051925 
L 589.533362 109.636125 
L 589.717948 110.051925 
L 589.902534 109.636125 
L 590.08712 110.329125 
L 590.271706 109.220325 
L 590.456292 110.051925 
L 590.825463 109.358925 
L 591.194635 111.299325 
L 591.563807 109.497525 
L 591.748393 110.329125 
L 592.117565 109.497525 
L 592.30215 109.358925 
L 592.486736 110.467725 
L 592.671322 110.883525 
L 592.855908 109.913325 
L 593.040494 110.051925 
L 593.22508 109.774725 
L 593.409666 110.329125 
L 593.594252 109.220325 
L 593.778837 109.220325 
L 594.148009 109.081725 
L 594.332595 110.329125 
L 594.517181 109.774725 
L 594.701767 110.051925 
L 594.886353 109.497525 
L 595.255524 109.358925 
L 595.809282 109.774725 
L 595.993868 109.497525 
L 596.36304 110.883525 
L 596.547625 109.081725 
L 596.732211 109.497525 
L 596.916797 108.804525 
L 597.101383 109.358925 
L 597.285969 109.497525 
L 597.470555 109.913325 
L 597.655141 109.358925 
L 597.839726 110.329125 
L 598.024312 109.220325 
L 598.393484 110.190525 
L 598.57807 109.913325 
L 598.762656 110.190525 
L 598.947242 109.636125 
L 599.131828 110.329125 
L 599.316413 108.943125 
L 599.500999 109.081725 
L 599.685585 108.665925 
L 599.870171 109.081725 
L 600.239343 110.467725 
L 600.423929 109.358925 
L 600.608514 109.358925 
L 600.7931 109.774725 
L 600.977686 108.804525 
L 601.162272 108.943125 
L 601.346858 108.527325 
L 601.531444 109.081725 
L 601.71603 109.081725 
L 601.900616 109.636125 
L 602.085201 109.636125 
L 602.269787 108.943125 
L 602.454373 108.943125 
L 602.638959 108.250125 
L 602.823545 109.497525 
L 603.008131 109.913325 
L 603.192717 108.111525 
L 603.377302 108.804525 
L 603.561888 108.111525 
L 603.746474 108.665925 
L 603.93106 108.665925 
L 604.115646 109.913325 
L 604.300232 109.913325 
L 604.484818 108.388725 
L 604.669404 109.220325 
L 604.853989 109.081725 
L 605.223161 108.388725 
L 605.407747 108.111525 
L 605.776919 109.081725 
L 605.961505 108.665925 
L 606.14609 108.527325 
L 606.330676 108.111525 
L 606.515262 108.111525 
L 606.699848 107.834325 
L 607.06902 108.250125 
L 607.253606 109.358925 
L 607.438192 109.081725 
L 607.622777 109.081725 
L 607.807363 108.804525 
L 608.176535 107.834325 
L 608.361121 108.804525 
L 608.730293 108.111525 
L 608.914878 108.665925 
L 609.099464 107.557125 
L 609.28405 108.388725 
L 609.468636 108.250125 
L 609.653222 108.804525 
L 610.022394 107.834325 
L 610.20698 107.834325 
L 610.391565 109.081725 
L 610.945323 107.695725 
L 611.129909 108.111525 
L 611.314495 107.695725 
L 611.683666 107.695725 
L 611.868252 108.527325 
L 612.052838 108.388725 
L 612.237424 107.695725 
L 612.42201 108.527325 
L 612.606596 108.250125 
L 612.975768 108.943125 
L 613.160353 107.972925 
L 613.344939 107.972925 
L 613.529525 108.527325 
L 613.898697 108.111525 
L 614.083283 107.695725 
L 614.267869 108.111525 
L 614.452454 107.972925 
L 614.821626 108.250125 
L 615.190798 107.418525 
L 615.375384 107.695725 
L 615.55997 107.557125 
L 616.298313 108.111525 
L 616.667485 107.695725 
L 616.852071 107.695725 
L 617.036657 108.111525 
L 617.221243 108.250125 
L 617.775 107.279925 
L 617.959586 107.418525 
L 618.144172 107.279925 
L 618.328758 107.834325 
L 618.882515 107.418525 
L 619.067101 107.834325 
L 619.251687 107.834325 
L 619.620859 107.695725 
L 619.805445 107.695725 
L 619.990031 107.834325 
L 620.174616 107.557125 
L 620.359202 107.834325 
L 620.543788 107.418525 
L 620.728374 108.527325 
L 620.91296 107.279925 
L 621.097546 107.557125 
L 621.282132 107.141325 
L 621.466717 107.557125 
L 621.835889 107.279925 
L 622.020475 107.557125 
L 622.574233 107.141325 
L 622.943404 107.972925 
L 623.12799 107.418525 
L 623.312576 107.695725 
L 623.497162 107.418525 
L 623.681748 107.557125 
L 623.866334 107.141325 
L 624.05092 107.557125 
L 624.235505 107.557125 
L 624.420091 107.279925 
L 624.973849 107.834325 
L 625.158435 107.557125 
L 625.343021 107.972925 
L 625.527607 107.418525 
L 625.712192 107.418525 
L 625.896778 107.141325 
L 626.081364 107.972925 
L 626.26595 107.972925 
L 626.450536 108.250125 
L 626.635122 107.557125 
L 626.819708 107.834325 
L 627.004293 107.695725 
L 627.188879 107.279925 
L 627.373465 107.279925 
L 627.558051 107.695725 
L 627.742637 107.279925 
L 627.927223 107.141325 
L 628.296395 108.111525 
L 628.48098 107.695725 
L 628.665566 107.972925 
L 629.034738 107.002725 
L 629.219324 107.279925 
L 629.40391 107.279925 
L 629.588496 107.972925 
L 629.773081 107.279925 
L 629.957667 108.388725 
L 630.142253 106.725525 
L 630.326839 108.111525 
L 630.511425 107.002725 
L 630.696011 107.557125 
L 630.880597 106.586925 
L 631.065183 107.695725 
L 631.249768 106.448325 
L 631.434354 107.972925 
L 631.61894 106.586925 
L 631.803526 106.725525 
L 631.988112 107.279925 
L 632.172698 107.141325 
L 632.357284 107.418525 
L 632.541869 107.002725 
L 632.726455 107.141325 
L 632.911041 107.557125 
L 633.095627 107.279925 
L 633.280213 107.279925 
L 633.464799 107.695725 
L 633.649385 107.279925 
L 633.833971 107.834325 
L 634.387728 106.309725 
L 634.572314 107.141325 
L 634.7569 106.725525 
L 634.941486 107.141325 
L 635.126072 106.586925 
L 635.310657 107.141325 
L 635.495243 107.141325 
L 635.679829 106.448325 
L 635.864415 107.279925 
L 636.049001 106.309725 
L 636.418173 107.418525 
L 636.602759 106.725525 
L 636.787344 106.586925 
L 636.97193 107.141325 
L 637.156516 107.141325 
L 637.341102 106.448325 
L 637.710274 106.725525 
L 637.89486 106.448325 
L 638.079445 106.586925 
L 638.264031 107.002725 
L 638.817789 106.309725 
L 639.002375 106.586925 
L 639.186961 106.448325 
L 639.371547 107.002725 
L 639.556132 107.141325 
L 639.740718 106.725525 
L 639.925304 106.586925 
L 640.10989 107.141325 
L 640.294476 106.864125 
L 640.479062 107.002725 
L 640.848233 106.448325 
L 641.032819 106.864125 
L 641.217405 106.448325 
L 641.586577 107.141325 
L 642.32492 106.725525 
L 642.509506 106.864125 
L 642.694092 106.448325 
L 642.878678 106.309725 
L 643.24785 107.002725 
L 643.801607 106.586925 
L 643.986193 106.725525 
L 644.170779 106.586925 
L 644.355365 106.864125 
L 644.724537 106.586925 
L 644.909123 106.725525 
L 645.093708 106.448325 
L 645.278294 106.725525 
L 645.46288 106.725525 
L 645.647466 106.171125 
L 646.016638 106.586925 
L 646.201224 106.309725 
L 646.38581 106.725525 
L 646.570395 106.725525 
L 646.939567 106.309725 
L 647.124153 107.141325 
L 647.308739 106.725525 
L 647.493325 106.725525 
L 647.862496 106.309725 
L 648.047082 106.171125 
L 648.231668 107.002725 
L 648.416254 106.171125 
L 648.60084 105.893925 
L 648.785426 106.171125 
L 648.970012 106.032525 
L 649.154598 105.616725 
L 649.339183 105.755325 
L 649.523769 105.616725 
L 649.892941 106.171125 
L 650.077527 106.171125 
L 650.262113 105.893925 
L 650.446699 106.309725 
L 650.631284 105.616725 
L 650.81587 105.893925 
L 651.000456 105.616725 
L 651.185042 106.032525 
L 651.369628 106.171125 
L 651.554214 105.755325 
L 651.7388 106.725525 
L 651.923386 106.032525 
L 652.107971 105.893925 
L 652.292557 106.032525 
L 652.477143 105.755325 
L 652.661729 105.893925 
L 652.846315 105.478125 
L 653.030901 105.893925 
L 653.400072 106.171125 
L 653.584658 105.893925 
L 653.769244 106.448325 
L 653.95383 105.893925 
L 654.138416 106.448325 
L 654.507588 105.200925 
L 654.692174 106.171125 
L 655.061345 106.171125 
L 655.245931 105.478125 
L 655.615103 105.478125 
L 655.799689 106.448325 
L 655.984275 105.893925 
L 656.16886 105.893925 
L 656.353446 105.616725 
L 656.538032 106.171125 
L 656.722618 105.478125 
L 656.907204 105.616725 
L 657.09179 106.171125 
L 657.276376 105.616725 
L 657.460962 105.755325 
L 657.645547 106.171125 
L 657.830133 105.339525 
L 658.014719 106.309725 
L 658.383891 105.339525 
L 658.753063 105.200925 
L 658.937648 105.339525 
L 659.122234 105.200925 
L 659.675992 105.478125 
L 659.860578 105.062325 
L 660.045164 105.755325 
L 660.22975 104.923725 
L 660.414335 105.478125 
L 660.598921 105.478125 
L 660.783507 105.616725 
L 660.968093 105.200925 
L 661.152679 105.062325 
L 661.337265 106.171125 
L 661.706436 105.478125 
L 661.891022 105.339525 
L 662.075608 105.616725 
L 662.260194 105.200925 
L 662.44478 105.893925 
L 662.629366 104.923725 
L 662.813952 105.893925 
L 662.998538 105.478125 
L 663.183123 105.616725 
L 663.367709 105.200925 
L 663.552295 105.200925 
L 663.736881 104.923725 
L 663.921467 106.171125 
L 664.106053 104.923725 
L 664.290639 105.062325 
L 664.475224 105.755325 
L 664.65981 104.923725 
L 664.844396 104.785125 
L 665.767326 105.339525 
L 665.951911 105.200925 
L 666.136497 105.755325 
L 666.321083 104.923725 
L 666.690255 105.616725 
L 666.874841 105.062325 
L 667.059427 106.032525 
L 667.244013 105.339525 
L 667.428598 105.755325 
L 667.79777 104.785125 
L 667.982356 106.032525 
L 668.166942 105.616725 
L 668.351528 106.171125 
L 668.720699 105.478125 
L 669.274457 105.755325 
L 669.459043 105.339525 
L 669.643629 105.339525 
L 670.012801 105.616725 
L 670.197386 106.448325 
L 670.381972 105.616725 
L 670.751144 105.200925 
L 670.93573 104.507925 
L 671.120316 105.755325 
L 671.489487 104.785125 
L 671.674073 105.893925 
L 671.858659 104.785125 
L 672.227831 106.309725 
L 672.412417 105.893925 
L 672.597003 106.171125 
L 672.781589 105.755325 
L 672.966174 104.785125 
L 673.15076 105.616725 
L 673.519932 105.200925 
L 673.704518 104.646525 
L 673.889104 105.616725 
L 674.07369 104.923725 
L 674.442861 105.616725 
L 674.627447 104.923725 
L 674.812033 105.200925 
L 674.996619 105.200925 
L 675.181205 105.893925 
L 675.550377 105.200925 
L 675.734962 105.478125 
L 675.919548 106.032525 
L 676.104134 105.755325 
L 676.28872 105.893925 
L 676.473306 104.646525 
L 676.657892 105.893925 
L 676.842478 105.200925 
L 677.211649 105.339525 
L 677.396235 106.171125 
L 677.765407 104.646525 
L 677.949993 105.755325 
L 678.134579 106.171125 
L 678.319165 105.062325 
L 678.50375 105.339525 
L 678.688336 104.923725 
L 678.872922 105.616725 
L 679.057508 105.339525 
L 679.242094 104.785125 
L 679.42668 105.062325 
L 679.611266 105.062325 
L 679.795851 104.785125 
L 680.165023 105.893925 
L 680.534195 104.923725 
L 680.718781 106.171125 
L 680.903367 105.200925 
L 681.087953 106.032525 
L 681.272538 104.507925 
L 681.64171 104.923725 
L 681.826296 105.616725 
L 682.010882 105.616725 
L 682.380054 104.646525 
L 682.564639 104.785125 
L 682.749225 105.478125 
L 682.933811 104.785125 
L 683.118397 105.339525 
L 683.302983 104.785125 
L 683.487569 105.478125 
L 683.672155 105.200925 
L 683.856741 105.478125 
L 684.041326 105.339525 
L 684.225912 104.785125 
L 684.410498 105.200925 
L 684.595084 104.923725 
L 684.77967 105.478125 
L 685.148842 104.507925 
L 685.518013 105.616725 
L 685.702599 104.507925 
L 685.887185 105.755325 
L 686.440943 104.785125 
L 686.9947 105.200925 
L 687.363872 104.785125 
L 687.548458 105.478125 
L 687.733044 104.646525 
L 687.91763 105.062325 
L 688.102215 104.507925 
L 688.286801 105.339525 
L 688.471387 105.339525 
L 688.655973 104.923725 
L 688.840559 106.032525 
L 689.025145 105.062325 
L 689.209731 105.062325 
L 689.578902 104.923725 
L 689.763488 105.893925 
L 690.13266 104.646525 
L 690.317246 105.478125 
L 690.501832 105.755325 
L 690.871003 104.785125 
L 691.055589 105.062325 
L 691.240175 106.309725 
L 691.424761 105.339525 
L 691.609347 105.339525 
L 691.793933 104.646525 
L 691.978519 105.478125 
L 692.163105 104.646525 
L 692.34769 104.646525 
L 692.532276 105.478125 
L 692.716862 105.339525 
L 692.901448 104.507925 
L 693.086034 104.923725 
L 693.455206 104.507925 
L 693.639792 105.478125 
L 693.824377 104.923725 
L 694.008963 106.171125 
L 694.193549 104.646525 
L 694.562721 105.616725 
L 694.931893 104.923725 
L 695.116478 105.478125 
L 695.301064 104.785125 
L 695.670236 104.646525 
L 695.854822 104.923725 
L 696.039408 104.785125 
L 696.223994 104.369325 
L 696.40858 104.369325 
L 696.593165 104.785125 
L 696.777751 104.369325 
L 696.962337 105.062325 
L 697.146923 104.646525 
L 697.331509 104.646525 
L 697.516095 104.923725 
L 697.700681 104.230725 
L 697.885266 104.923725 
L 698.069852 104.646525 
L 698.254438 105.200925 
L 698.439024 104.785125 
L 698.62361 105.062325 
L 698.808196 103.676325 
L 698.992782 104.646525 
L 699.177368 104.092125 
L 699.361953 104.507925 
L 699.546539 104.369325 
L 699.546539 104.369325 
" clip-path="url(#pb281c0cfcc)" style="fill: none; stroke: #da3124; stroke-width: 1.5; stroke-linecap: square"/>
   </g>
   <g id="patch_9">
    <path d="M 409.017614 299.518125 
L 409.017614 22.318125 
" style="fill: none; stroke: #000000; stroke-width: 0.8; stroke-linejoin: miter; stroke-linecap: square"/>
   </g>
   <g id="patch_10">
    <path d="M 713.38125 299.518125 
L 713.38125 22.318125 
" style="fill: none; stroke: #000000; stroke-width: 0.8; stroke-linejoin: miter; stroke-linecap: square"/>
   </g>
   <g id="patch_11">
    <path d="M 409.017614 299.518125 
L 713.38125 299.518125 
" style="fill: none; stroke: #000000; stroke-width: 0.8; stroke-linejoin: miter; stroke-linecap: square"/>
   </g>
   <g id="patch_12">
    <path d="M 409.017614 22.318125 
L 713.38125 22.318125 
" style="fill: none; stroke: #000000; stroke-width: 0.8; stroke-linejoin: miter; stroke-linecap: square"/>
   </g>
   <g id="text_40">
    <!-- Test Accuracy -->
    <g transform="translate(520.084432 16.318125) scale(0.12 -0.12)">
     <use xlink:href="#DejaVuSans-54"/>
     <use xlink:href="#DejaVuSans-65" x="44.083984"/>
     <use xlink:href="#DejaVuSans-73" x="105.607422"/>
     <use xlink:href="#DejaVuSans-74" x="157.707031"/>
     <use xlink:href="#DejaVuSans-20" x="196.916016"/>
     <use xlink:href="#DejaVuSans-41" x="228.703125"/>
     <use xlink:href="#DejaVuSans-63" x="295.361328"/>
     <use xlink:href="#DejaVuSans-63" x="350.341797"/>
     <use xlink:href="#DejaVuSans-75" x="405.322266"/>
     <use xlink:href="#DejaVuSans-72" x="468.701172"/>
     <use xlink:href="#DejaVuSans-61" x="509.814453"/>
     <use xlink:href="#DejaVuSans-63" x="571.09375"/>
     <use xlink:href="#DejaVuSans-79" x="626.074219"/>
    </g>
   </g>
   <g id="legend_2">
    <g id="patch_13">
     <path d="M 605.85625 44.99625 
L 706.38125 44.99625 
Q 708.38125 44.99625 708.38125 42.99625 
L 708.38125 29.318125 
Q 708.38125 27.318125 706.38125 27.318125 
L 605.85625 27.318125 
Q 603.85625 27.318125 603.85625 29.318125 
L 603.85625 42.99625 
Q 603.85625 44.99625 605.85625 44.99625 
z
" style="fill: #ffffff; opacity: 0.8; stroke: #cccccc; stroke-linejoin: miter"/>
    </g>
    <g id="line2d_38">
     <path d="M 607.85625 35.416563 
L 617.85625 35.416563 
L 627.85625 35.416563 
" style="fill: none; stroke: #da3124; stroke-width: 1.5; stroke-linecap: square"/>
    </g>
    <g id="text_41">
     <!-- Test Accuracy -->
     <g transform="translate(635.85625 38.916563) scale(0.1 -0.1)">
      <use xlink:href="#DejaVuSans-54"/>
      <use xlink:href="#DejaVuSans-65" x="44.083984"/>
      <use xlink:href="#DejaVuSans-73" x="105.607422"/>
      <use xlink:href="#DejaVuSans-74" x="157.707031"/>
      <use xlink:href="#DejaVuSans-20" x="196.916016"/>
      <use xlink:href="#DejaVuSans-41" x="228.703125"/>
      <use xlink:href="#DejaVuSans-63" x="295.361328"/>
      <use xlink:href="#DejaVuSans-63" x="350.341797"/>
      <use xlink:href="#DejaVuSans-75" x="405.322266"/>
      <use xlink:href="#DejaVuSans-72" x="468.701172"/>
      <use xlink:href="#DejaVuSans-61" x="509.814453"/>
      <use xlink:href="#DejaVuSans-63" x="571.09375"/>
      <use xlink:href="#DejaVuSans-79" x="626.074219"/>
     </g>
    </g>
   </g>
  </g>
 </g>
 <defs>
  <clipPath id="p31a644d9ac">
   <rect x="43.78125" y="22.318125" width="304.363636" height="277.2"/>
  </clipPath>
  <clipPath id="pb281c0cfcc">
   <rect x="409.017614" y="22.318125" width="304.363636" height="277.2"/>
  </clipPath>
 </defs>
</svg>
